<svg xmlns="http://www.w3.org/2000/svg" viewBox="0 0 150 150"><defs><style>.cls-1{fill:#00b8b1;}.cls-2{fill:#625da8;}.cls-3{fill:#a2d7c9;}.cls-4{fill:#629043;}.cls-4,.cls-5{fill-rule:evenodd;}.cls-5,.cls-6{fill:#fff;}.cls-7{fill:none;stroke:#fff;stroke-miterlimit:10;stroke-width:0.5px;}.cls-8{fill:#fcfdff;}</style></defs><g id="Layer_1" data-name="Layer 1"><path class="cls-1" d="M134.6,75.06c0,3.11-1.77,6-2.24,9s.29,6.39-.64,9.27-3.54,5.18-4.93,7.88-1.69,6.15-3.49,8.62-5,3.81-7.12,6-3.5,5.32-6,7.12-5.88,2.1-8.62,3.49-5,4-7.88,4.93-6.21.16-9.27.64-5.91,2.24-9,2.24-6-1.77-9-2.24-6.39.29-9.27-.64-5.18-3.55-7.88-4.93-6.15-1.7-8.62-3.49-3.81-5-6-7.12-5.32-3.5-7.12-6-2.1-5.88-3.49-8.62-4-5-4.93-7.88-.16-6.21-.64-9.27-2.24-5.91-2.24-9,1.77-6,2.24-9-.29-6.39.64-9.27,3.55-5.18,4.93-7.88,1.69-6.15,3.49-8.62,5-3.81,7.12-6,3.5-5.32,6-7.12,5.88-2.1,8.62-3.49,5-4,7.88-4.93,6.21-.16,9.27-.64,5.91-2.24,9-2.24,6,1.77,9,2.24,6.39-.29,9.27.64,5.18,3.55,7.88,4.93,6.15,1.69,8.62,3.49,3.81,5,6,7.12,5.32,3.49,7.12,6,2.1,5.88,3.49,8.62,4,5,4.93,7.88.16,6.21.64,9.27S134.6,72,134.6,75.06Z"/><path class="cls-2" d="M129.58,75.06A54.16,54.16,0,1,1,75.42,20.9,54.16,54.16,0,0,1,129.58,75.06Z"/><path class="cls-3" d="M75.42,126.07a51,51,0,1,1,51-51A51.07,51.07,0,0,1,75.42,126.07Zm0-101.25a50.24,50.24,0,1,0,50.24,50.24A50.3,50.3,0,0,0,75.42,24.82Z"/><polygon class="cls-4" points="75.28 117.61 75.86 118.77 77.15 118.96 76.22 119.87 76.44 121.16 75.28 120.55 74.13 121.16 74.35 119.87 73.42 118.96 74.71 118.77 75.28 117.61"/><polygon class="cls-5" points="81.03 117.24 81.61 118.41 82.9 118.6 81.97 119.51 82.19 120.8 81.03 120.19 79.88 120.8 80.1 119.51 79.17 118.6 80.45 118.41 81.03 117.24"/><polygon class="cls-5" points="86.56 116.18 87.14 117.35 88.43 117.53 87.5 118.45 87.72 119.73 86.56 119.13 85.41 119.73 85.63 118.45 84.69 117.53 85.98 117.35 86.56 116.18"/><polygon class="cls-5" points="91.83 114.46 92.41 115.63 93.7 115.82 92.76 116.73 92.98 118.02 91.83 117.41 90.67 118.02 90.9 116.73 89.96 115.82 91.25 115.63 91.83 114.46"/><polygon class="cls-5" points="96.79 112.14 97.37 113.31 98.66 113.5 97.72 114.41 97.94 115.69 96.79 115.08 95.63 115.69 95.85 114.41 94.92 113.5 96.21 113.31 96.79 112.14"/><polygon class="cls-5" points="101.4 109.25 101.97 110.42 103.26 110.61 102.33 111.52 102.55 112.8 101.4 112.19 100.24 112.8 100.46 111.52 99.53 110.61 100.82 110.42 101.4 109.25"/><polygon class="cls-5" points="105.61 105.84 106.18 107.01 107.47 107.2 106.54 108.11 106.76 109.39 105.61 108.78 104.45 109.39 104.67 108.11 103.74 107.2 105.03 107.01 105.61 105.84"/><polygon class="cls-5" points="109.38 101.96 109.95 103.13 111.25 103.31 110.31 104.22 110.53 105.51 109.38 104.9 108.22 105.51 108.44 104.22 107.51 103.31 108.8 103.13 109.38 101.96"/><polygon class="cls-5" points="112.66 97.64 113.24 98.81 114.53 99 113.59 99.91 113.81 101.19 112.66 100.59 111.5 101.19 111.73 99.91 110.79 99 112.08 98.81 112.66 97.64"/><polygon class="cls-5" points="115.41 92.94 115.99 94.11 117.28 94.3 116.34 95.21 116.57 96.5 115.41 95.89 114.26 96.5 114.48 95.21 113.54 94.3 114.83 94.11 115.41 92.94"/><polygon class="cls-5" points="117.59 87.9 118.17 89.07 119.45 89.26 118.52 90.17 118.74 91.46 117.59 90.85 116.43 91.46 116.66 90.17 115.72 89.26 117.01 89.07 117.59 87.9"/><polygon class="cls-5" points="119.14 82.56 119.72 83.73 121.01 83.92 120.08 84.83 120.3 86.12 119.14 85.51 117.99 86.12 118.21 84.83 117.28 83.92 118.57 83.73 119.14 82.56"/><polygon class="cls-5" points="120.04 76.98 120.61 78.15 121.91 78.33 120.97 79.24 121.19 80.53 120.04 79.92 118.88 80.53 119.1 79.24 118.17 78.33 119.46 78.15 120.04 76.98"/><polygon class="cls-5" points="120.22 71.19 120.8 72.36 122.09 72.55 121.15 73.46 121.37 74.74 120.22 74.14 119.06 74.74 119.28 73.46 118.35 72.55 119.64 72.36 120.22 71.19"/><polygon class="cls-5" points="119.68 65.5 120.25 66.67 121.55 66.85 120.61 67.76 120.83 69.05 119.68 68.44 118.52 69.05 118.74 67.76 117.81 66.85 119.1 66.67 119.68 65.5"/><polygon class="cls-5" points="118.45 60.03 119.02 61.2 120.31 61.38 119.38 62.29 119.6 63.58 118.45 62.97 117.29 63.58 117.51 62.29 116.58 61.38 117.87 61.2 118.45 60.03"/><polygon class="cls-5" points="116.57 54.83 117.15 56 118.44 56.19 117.51 57.1 117.73 58.38 116.57 57.78 115.42 58.38 115.64 57.1 114.71 56.19 116 56 116.57 54.83"/><polygon class="cls-5" points="114.1 49.96 114.68 51.12 115.97 51.31 115.04 52.22 115.26 53.51 114.1 52.9 112.95 53.51 113.17 52.22 112.24 51.31 113.53 51.12 114.1 49.96"/><polygon class="cls-5" points="111.08 45.44 111.66 46.61 112.95 46.8 112.02 47.71 112.23 49 111.08 48.39 109.93 49 110.15 47.71 109.21 46.8 110.5 46.61 111.08 45.44"/><polygon class="cls-5" points="107.55 41.34 108.13 42.51 109.42 42.7 108.48 43.61 108.7 44.89 107.55 44.28 106.4 44.89 106.61 43.61 105.68 42.7 106.97 42.51 107.55 41.34"/><polygon class="cls-5" points="103.55 37.69 104.13 38.85 105.42 39.04 104.49 39.95 104.71 41.24 103.55 40.63 102.4 41.24 102.62 39.95 101.69 39.04 102.98 38.85 103.55 37.69"/><polygon class="cls-5" points="99.14 34.53 99.72 35.7 101.01 35.89 100.07 36.8 100.29 38.08 99.14 37.48 97.98 38.08 98.2 36.8 97.27 35.89 98.56 35.7 99.14 34.53"/><polygon class="cls-5" points="94.35 31.92 94.93 33.09 96.22 33.28 95.28 34.19 95.51 35.47 94.35 34.87 93.2 35.47 93.42 34.19 92.48 33.28 93.77 33.09 94.35 31.92"/><polygon class="cls-5" points="89.23 29.89 89.81 31.06 91.1 31.25 90.17 32.16 90.39 33.45 89.23 32.84 88.08 33.45 88.3 32.16 87.36 31.25 88.66 31.06 89.23 29.89"/><polygon class="cls-5" points="83.83 28.5 84.4 29.67 85.69 29.86 84.76 30.77 84.98 32.05 83.83 31.45 82.67 32.05 82.89 30.77 81.96 29.86 83.25 29.67 83.83 28.5"/><polygon class="cls-5" points="78.18 27.78 78.76 28.95 80.05 29.14 79.12 30.05 79.34 31.33 78.18 30.73 77.03 31.33 77.25 30.05 76.31 29.14 77.61 28.95 78.18 27.78"/><polygon class="cls-5" points="72.39 27.78 72.96 28.95 74.25 29.14 73.32 30.05 73.54 31.33 72.39 30.73 71.23 31.33 71.45 30.05 70.52 29.14 71.81 28.95 72.39 27.78"/><polygon class="cls-5" points="66.74 28.5 67.32 29.67 68.61 29.86 67.67 30.77 67.89 32.05 66.74 31.45 65.59 32.05 65.81 30.77 64.87 29.86 66.17 29.67 66.74 28.5"/><polygon class="cls-5" points="61.34 29.89 61.91 31.06 63.2 31.25 62.27 32.16 62.49 33.45 61.34 32.84 60.18 33.45 60.4 32.16 59.47 31.25 60.76 31.06 61.34 29.89"/><polygon class="cls-5" points="56.22 31.92 56.8 33.09 58.08 33.28 57.15 34.19 57.37 35.47 56.22 34.87 55.06 35.47 55.28 34.19 54.35 33.28 55.64 33.09 56.22 31.92"/><polygon class="cls-5" points="51.43 34.53 52.01 35.7 53.3 35.89 52.36 36.8 52.58 38.08 51.43 37.48 50.27 38.08 50.49 36.8 49.56 35.89 50.85 35.7 51.43 34.53"/><polygon class="cls-5" points="47.02 37.69 47.59 38.85 48.88 39.04 47.95 39.95 48.17 41.24 47.02 40.63 45.86 41.24 46.08 39.95 45.15 39.04 46.44 38.85 47.02 37.69"/><polygon class="cls-5" points="43.02 41.34 43.59 42.51 44.89 42.7 43.95 43.61 44.17 44.89 43.02 44.28 41.86 44.89 42.09 43.61 41.15 42.7 42.44 42.51 43.02 41.34"/><polygon class="cls-5" points="39.49 45.44 40.06 46.61 41.35 46.8 40.42 47.71 40.64 49 39.49 48.39 38.33 49 38.55 47.71 37.62 46.8 38.91 46.61 39.49 45.44"/><polygon class="cls-5" points="36.46 49.96 37.04 51.12 38.33 51.31 37.4 52.22 37.62 53.51 36.46 52.9 35.31 53.51 35.53 52.22 34.6 51.31 35.89 51.12 36.46 49.96"/><polygon class="cls-5" points="33.99 54.83 34.57 56 35.86 56.19 34.93 57.1 35.15 58.38 33.99 57.78 32.84 58.38 33.06 57.1 32.13 56.19 33.42 56 33.99 54.83"/><polygon class="cls-5" points="31.82 60.08 32.39 61.25 33.68 61.44 32.75 62.35 32.97 63.64 31.82 63.03 30.66 63.64 30.88 62.35 29.95 61.44 31.24 61.25 31.82 60.08"/><polygon class="cls-5" points="30.38 65.58 30.96 66.75 32.25 66.94 31.32 67.85 31.54 69.14 30.38 68.53 29.23 69.14 29.45 67.85 28.52 66.94 29.81 66.75 30.38 65.58"/><polygon class="cls-5" points="30.15 71.1 30.73 72.27 32.02 72.46 31.08 73.37 31.3 74.65 30.15 74.05 29 74.65 29.22 73.37 28.28 72.46 29.57 72.27 30.15 71.1"/><polygon class="cls-5" points="30.53 76.98 31.11 78.15 32.4 78.33 31.46 79.24 31.68 80.53 30.53 79.92 29.38 80.53 29.6 79.24 28.66 78.33 29.95 78.15 30.53 76.98"/><polygon class="cls-5" points="31.42 82.56 32 83.73 33.29 83.92 32.36 84.83 32.58 86.12 31.42 85.51 30.27 86.12 30.49 84.83 29.56 83.92 30.85 83.73 31.42 82.56"/><polygon class="cls-5" points="32.98 87.9 33.56 89.07 34.85 89.26 33.91 90.17 34.13 91.46 32.98 90.85 31.83 91.46 32.05 90.17 31.11 89.26 32.4 89.07 32.98 87.9"/><polygon class="cls-5" points="35.16 92.94 35.73 94.11 37.02 94.3 36.09 95.21 36.31 96.5 35.16 95.89 34 96.5 34.22 95.21 33.29 94.3 34.58 94.11 35.16 92.94"/><polygon class="cls-5" points="37.91 97.64 38.49 98.81 39.77 99 38.84 99.91 39.06 101.19 37.91 100.59 36.75 101.19 36.98 99.91 36.04 99 37.33 98.81 37.91 97.64"/><polygon class="cls-5" points="41.19 101.96 41.77 103.13 43.06 103.31 42.13 104.22 42.35 105.51 41.19 104.9 40.04 105.51 40.26 104.22 39.32 103.31 40.62 103.13 41.19 101.96"/><polygon class="cls-5" points="44.96 105.84 45.54 107.01 46.83 107.2 45.9 108.11 46.12 109.39 44.96 108.78 43.81 109.39 44.03 108.11 43.09 107.2 44.38 107.01 44.96 105.84"/><polygon class="cls-5" points="49.17 109.25 49.75 110.42 51.04 110.61 50.1 111.52 50.33 112.8 49.17 112.19 48.02 112.8 48.24 111.52 47.3 110.61 48.59 110.42 49.17 109.25"/><polygon class="cls-5" points="53.78 112.14 54.36 113.31 55.65 113.5 54.71 114.41 54.93 115.69 53.78 115.08 52.63 115.69 52.85 114.41 51.91 113.5 53.2 113.31 53.78 112.14"/><polygon class="cls-5" points="58.74 114.46 59.31 115.63 60.61 115.82 59.67 116.73 59.89 118.02 58.74 117.41 57.58 118.02 57.81 116.73 56.87 115.82 58.16 115.63 58.74 114.46"/><polygon class="cls-5" points="64 116.18 64.58 117.35 65.87 117.53 64.94 118.45 65.16 119.73 64 119.13 62.85 119.73 63.07 118.45 62.14 117.53 63.43 117.35 64 116.18"/><polygon class="cls-5" points="69.53 117.24 70.11 118.41 71.4 118.6 70.47 119.51 70.69 120.8 69.53 120.19 68.38 120.8 68.6 119.51 67.67 118.6 68.96 118.41 69.53 117.24"/><polygon class="cls-5" points="75.28 117.61 75.86 118.77 77.15 118.96 76.22 119.87 76.44 121.16 75.28 120.55 74.13 121.16 74.35 119.87 73.42 118.96 74.71 118.77 75.28 117.61"/><path class="cls-6" d="M54.88,61.82l-2.05.07-.31.88-2,.06,1.85-4.89,2.66-.08,2.15,4.76-2,.06Zm-.51-1.22-.6-1.46-.52,1.49Z"/><path class="cls-6" d="M63.76,57.58l.16,4.83-2.35.07L59.4,59.7l.09,2.85-1.79.05-.16-4.82,2.35-.08,2.17,2.78L62,57.64Z"/><path class="cls-6" d="M68.74,61.38l-2.06.07-.3.88-2,.06,1.84-4.89,2.66-.08,2.16,4.76-2,.06Zm-.51-1.22-.61-1.46-.51,1.49Z"/><path class="cls-6" d="M76.47,60.49l0,1.51-5,.16-.16-4.82,1.8-.06.1,3.31Z"/><path class="cls-6" d="M78.87,61.93,77.08,62l-.16-4.83,1.8-.06Z"/><path class="cls-6" d="M81.16,60.15c0,.24.23.39,1.37.35s1.22-.1,1.21-.28S83.58,60,82.45,60c-2.19,0-3-.33-3.07-1.46s1-1.55,2.9-1.61,3,.36,3,1.6l-1.8.06c0-.26-.42-.3-1.3-.27s-1,.07-1,.26.18.17,1.23.18c1.9,0,3.08.11,3.12,1.37s-1,1.7-3,1.76-3.1-.24-3.14-1.67Z"/><path class="cls-6" d="M91.76,58.21l-2.07.06.11,3.31-1.8.06-.1-3.31-2.07.07,0-1.52,5.93-.19Z"/><path class="cls-6" d="M95.58,60.53l-2,.06-.31.88-2,.07,1.85-4.89,2.66-.09,2.15,4.76-2,.07Zm-.51-1.23-.6-1.45L94,59.34Z"/><path class="cls-6" d="M54.12,93.76C54.23,97.24,52,99,49.49,99l-7.6.24L41.57,89l7.59-.24C51.63,88.72,54,90.28,54.12,93.76Zm-3.8.12c-.06-1.9-1.4-1.85-2.22-1.83l-2.63.08.12,3.8,2.63-.08C49,95.82,50.38,95.78,50.32,93.88Z"/><path class="cls-6" d="M63.16,96.75l-4.35.14-.65,1.86L54,98.88,57.9,88.52l5.64-.18,4.56,10.1-4.18.13Zm-1.08-2.6L60.8,91.06l-1.08,3.17Z"/><path class="cls-6" d="M81.34,92.9c.11,3.47-2.16,5.18-4.63,5.26l-7.6.24-.32-10.23,7.6-.24C78.85,87.86,81.23,89.42,81.34,92.9Zm-3.8.12c-.06-1.9-1.4-1.86-2.22-1.83l-2.63.08.12,3.8L75.44,95C76.26,95,77.6,94.92,77.54,93Z"/><path class="cls-6" d="M82.36,92.85c-.12-3.55,1.76-5.31,6.26-5.45s6.48,1.5,6.59,5S93.44,97.78,89,97.92,82.47,96.41,82.36,92.85Zm9-.29c0-1.07-.44-2-2.69-2s-2.6,1-2.56,2.12.46,2,2.69,2S91.45,93.64,91.41,92.56Z"/><path class="cls-6" d="M100.08,93.81c0,.49.49.81,2.9.74,2.25-.08,2.58-.23,2.57-.61s-.35-.49-2.75-.48c-4.62,0-6.41-.71-6.49-3.09s2.1-3.28,6.14-3.41,6.27.76,6.35,3.38l-3.8.12c0-.54-.9-.63-2.75-.57s-2.15.16-2.13.55.37.37,2.6.39c4,0,6.54.23,6.63,2.9s-2.23,3.61-6.42,3.74-6.56-.51-6.65-3.54Z"/><path class="cls-6" d="M54,79.07c0,1.63-.89,3-3.15,3l-9.11.29-.32-10,8.68-.27c2.26-.07,3,.93,3,2.44a3,3,0,0,1-.72,1.89A3.28,3.28,0,0,1,54,79.07Zm-8.77-3.24,3.42-.11c.37,0,.82,0,.81-.57s-.48-.53-.85-.51l-3.41.11Zm5.06,3.07c0-.53-.47-.51-.84-.5l-4.13.13,0,1,4.13-.13C49.81,79.44,50.26,79.43,50.25,78.9Z"/><path class="cls-6" d="M63.13,79.93l-4.24.13-.63,1.82L54.19,82,58,71.92l5.49-.18,4.45,9.83-4.07.13ZM62.08,77.4l-1.25-3-1.06,3.08Z"/><path class="cls-6" d="M81.45,71.17l.31,10-4.84.15-4.48-5.74.19,5.88-3.7.12-.32-10,4.84-.16,4.48,5.74-.18-5.87Z"/><path class="cls-6" d="M88.69,70.8c4-.13,6.11,1.2,6.37,4.34l-3.79.12c-.17-.94-.91-1.38-2.48-1.33-2.19.07-2.53,1-2.5,2.06s.45,2,2.63,1.92c1.57,0,2.28-.55,2.39-1.51l3.78-.12C95,79.44,93,80.92,89,81c-4.38.14-6.31-1.46-6.42-4.94S84.31,70.94,88.69,70.8Z"/><path class="cls-6" d="M96.07,75.68c-.11-3.46,1.71-5.17,6.1-5.31s6.31,1.46,6.42,4.91-1.73,5.19-6.1,5.33S96.18,79.15,96.07,75.68Zm8.82-.28c0-1-.43-2-2.62-1.9s-2.54,1-2.5,2.06.44,2,2.62,1.92S104.92,76.45,104.89,75.4Z"/><path class="cls-6" d="M73.87,64.36,74,69.18l-1,0v-.56a2.42,2.42,0,0,1-1.76.65c-1.14,0-2.12-.44-2.15-1.8s.95-1.85,2.08-1.87a2.38,2.38,0,0,1,1.79.58l0-1.82Zm-1,3.06c0-.7-.53-1-1.45-1s-1.41.3-1.4,1,.52,1,1.44.94S72.91,68.12,72.9,67.42Z"/><path class="cls-6" d="M78.44,67.82h1c-.21.9-1.09,1.35-2.4,1.37s-2.41-.49-2.43-1.79,1-1.85,2.42-1.88,2.44.42,2.47,2l-3.83.07c.12.56.67.74,1.35.72S78.19,68.19,78.44,67.82ZM75.71,67l2.69,0c-.18-.5-.69-.63-1.34-.62S75.86,66.45,75.71,67Z"/><line class="cls-7" x1="49.6" y1="68.18" x2="68.03" y2="67.68"/><line class="cls-7" x1="80.91" y1="67.17" x2="99.33" y2="66.67"/><rect class="cls-2" x="67.27" y="80.04" width="14.64" height="9.09" transform="translate(-2.82 2.57) rotate(-1.94)"/><path class="cls-6" d="M74.38,82l.09,4.83h-1v-.55a2.44,2.44,0,0,1-1.77.65c-1.13,0-2.12-.44-2.14-1.8s.94-1.85,2.08-1.87a2.35,2.35,0,0,1,1.78.58l0-1.83Zm-1,3.07c0-.7-.52-1-1.44-1s-1.42.3-1.41,1,.52,1,1.44,1S73.42,85.79,73.4,85.09Z"/><path class="cls-6" d="M78.94,85.49l1,0c-.22.91-1.09,1.36-2.41,1.38s-2.4-.49-2.43-1.79,1-1.85,2.43-1.88,2.43.42,2.46,2l-3.83.07c.13.57.67.75,1.36.73S78.69,85.86,78.94,85.49Zm-2.72-.86,2.69,0c-.19-.5-.69-.63-1.34-.62S76.37,84.12,76.22,84.63Z"/><path class="cls-8" d="M80.91,39.57c-.32-1.17-2.65-2.31-6.74-2.31s-6.43,1.14-6.74,2.31a.18.18,0,0,0,0,.13v10a.21.21,0,0,0,0,.12c.32,1.33,3.18,2.32,6.75,2.32s6.41-1,6.74-2.31a.28.28,0,0,0,0-.13v-10A.25.25,0,0,0,80.91,39.57Zm-.53,6.9a.17.17,0,0,1,0,.1.2.2,0,0,1,0,.08l-.06.1-.06.08-.1.1L80,47l-.14.11-.07,0-.2.13,0,0-.26.14h0a2.37,2.37,0,0,1-.32.14h0a10.44,10.44,0,0,1-2.32.58h0l-.55.07H76l-.5,0h-.24l-.38,0-.66,0-.66,0-.39,0h-.24l-.5,0h-.09l-.55-.07h0a10.58,10.58,0,0,1-2.32-.58h0l-.32-.14,0,0-.25-.13-.06,0-.2-.13-.07,0L68.31,47l-.07-.07-.1-.1-.06-.08-.06-.1s0,0,0-.08l0-.1a.51.51,0,0,1,0-.13.28.28,0,0,1,0-.09.49.49,0,0,0,0-.12v-2l0,0,.19.15c1,.77,3.07,1.37,6,1.37s5-.59,6-1.36l.22-.18h0v2a.24.24,0,0,0,0,.12v.09A.51.51,0,0,1,80.38,46.47Zm0-5.61v2a.24.24,0,0,0,0,.12v.09a.59.59,0,0,1,0,.13.22.22,0,0,1,0,.1l0,.08-.06.1-.06.07-.1.11-.07.06-.14.12-.07,0-.2.12,0,0-.26.13,0,0-.32.14h0a9.88,9.88,0,0,1-2.32.59h0l-.55.07H76l-.5,0h-.24l-.38,0H73.51l-.39,0h-.24l-.5,0h-.09L71.74,45h0a10.54,10.54,0,0,1-2.32-.59h0l-.32-.14,0,0-.25-.13-.06,0-.2-.12-.07,0-.14-.12-.07-.06-.1-.11-.06-.07L68,43.4a.59.59,0,0,0,0-.08l0-.1a.59.59,0,0,1,0-.13.28.28,0,0,1,0-.09.45.45,0,0,0,0-.12v-2L68,41l.06,0a3.15,3.15,0,0,0,.27.19l.06,0,.25.14.1.05.31.15.06,0a3.7,3.7,0,0,0,.4.16l.12,0,.35.11.13,0,.49.12.07,0,.47.09.17,0,.47.07h.13l.62.07h.16l.53,0h1.83l.53,0h.16l.63-.07h.12L77,42.2l.17,0,.47-.09.07,0,.5-.12.13,0,.35-.11.11,0,.41-.16,0,0,.31-.15.1-.05.25-.14.07,0,.26-.19.06,0ZM74.17,37.8c3.67,0,6.23,1.07,6.23,2s-2.56,2-6.23,2-6.24-1.07-6.24-2S70.49,37.8,74.17,37.8ZM80.4,49.65v0c-.16.94-2.7,1.94-6.23,1.94s-6.08-1-6.23-1.94V47.37l0,0,.19.16c1,.77,3.07,1.37,6,1.37s5-.6,6-1.37a1.92,1.92,0,0,0,.22-.18h0Z"/></g></svg>