<?xml version="1.0" encoding="utf-8"?>
<!-- Generator: Adobe Illustrator 25.3.1, SVG Export Plug-In . SVG Version: 6.00 Build 0)  -->
<svg version="1.1" id="Camada_1" xmlns="http://www.w3.org/2000/svg" xmlns:xlink="http://www.w3.org/1999/xlink" x="0px" y="0px"
	 viewBox="0 0 150 150" style="enable-background:new 0 0 150 150;" xml:space="preserve">
<style type="text/css">
	.st0{fill:url(#SVGID_1_);}
	.st1{fill:url(#SVGID_2_);}
	.st2{fill:url(#SVGID_3_);}
	.st3{fill:url(#SVGID_4_);}
	.st4{fill:url(#SVGID_5_);}
	.st5{fill:#FFFFFF;}
	.st6{fill:url(#SVGID_6_);}
	.st7{fill:url(#SVGID_7_);}
	.st8{fill:#373737;}
	.st9{fill:url(#SVGID_8_);}
	.st10{fill:url(#SVGID_9_);}
	.st11{fill:url(#SVGID_10_);}
	.st12{fill:url(#SVGID_11_);}
	.st13{fill:url(#SVGID_12_);}
	.st14{fill:url(#SVGID_13_);}
	.st15{font-family:'MonumentExtended-Regular';}
	.st16{font-size:4.79px;}
</style>
<g id="Layer_1">
	
		<linearGradient id="SVGID_1_" gradientUnits="userSpaceOnUse" x1="16.1484" y1="76.5" x2="133.8216" y2="76.5" gradientTransform="matrix(1 0 0 -1 0 152)">
		<stop  offset="0" style="stop-color:#00B8B1"/>
		<stop  offset="1" style="stop-color:#006F83"/>
	</linearGradient>
	<path class="st0" d="M133.5,74.1L133.5,74.1c0.4-1,0.4-2.1-0.1-3l0,0c-0.5-0.8-0.6-1.8-0.3-2.7l0,0c0.4-1,0.2-2.1-0.4-3l0,0
		c-0.6-0.8-0.8-1.8-0.5-2.7l0,0c0.3-1,0-2.1-0.7-2.9l0,0c-0.6-0.7-0.9-1.7-0.8-2.6l0,0c0.2-1.1-0.2-2.1-1-2.8l0,0
		c-0.7-0.6-1.1-1.6-1.1-2.5l0,0c0-1.1-0.4-2.1-1.3-2.7l0,0c-0.8-0.6-1.2-1.5-1.3-2.4l0,0c0-1.1-0.6-2-1.6-2.6l0,0
		c-0.8-0.5-1.4-1.3-1.5-2.3l0,0c-0.2-1.1-0.8-2-1.8-2.4l0,0c-0.9-0.4-1.5-1.2-1.7-2.1l0,0c-0.3-1-1-1.9-2-2.2l0,0
		c-0.9-0.3-1.6-1-1.9-1.9l0,0c-0.4-1-1.2-1.7-2.2-2l0,0c-0.9-0.2-1.7-0.9-2.1-1.7l0,0c-0.5-1-1.4-1.6-2.4-1.8l0,0
		c-0.9-0.1-1.8-0.7-2.3-1.5l0,0c-0.5-0.9-1.5-1.5-2.6-1.5l0,0c-1,0-1.8-0.5-2.4-1.3l0,0c-0.7-0.9-1.7-1.4-2.8-1.3l0,0
		c-1,0-1.9-0.3-2.5-1l0,0c-0.7-0.8-1.8-1.2-2.8-1l0,0c-0.9,0.1-1.9-0.2-2.6-0.8l0,0c-0.8-0.7-1.9-1-2.9-0.7l0,0
		c-0.9,0.2-1.9,0-2.7-0.5l0,0c-0.9-0.6-2-0.8-3-0.4l0,0c-0.9,0.3-1.9,0.2-2.7-0.3l0,0c-0.9-0.5-2-0.6-3-0.1l0,0
		c-0.9,0.4-1.9,0.4-2.7,0l0,0c-1-0.4-2.1-0.4-3,0.1l0,0c-0.8,0.5-1.8,0.6-2.7,0.3l0,0c-1-0.4-2.1-0.2-3,0.4l0,0
		c-0.8,0.6-1.8,0.8-2.7,0.5l0,0c-1-0.3-2.1,0-2.9,0.7l0,0c-0.7,0.6-1.7,0.9-2.6,0.8l0,0c-1.1-0.2-2.1,0.2-2.8,1l0,0
		c-0.6,0.7-1.6,1.1-2.5,1l0,0c-1.1,0-2.1,0.4-2.7,1.3l0,0c-0.6,0.8-1.5,1.2-2.4,1.3l0,0c-1.1,0-2,0.6-2.6,1.5l0,0
		c-0.5,0.8-1.3,1.4-2.3,1.5l0,0c-1.1,0.2-2,0.8-2.4,1.8l0,0c-0.4,0.9-1.2,1.5-2.1,1.7l0,0c-1,0.3-1.9,1-2.2,2l0,0
		c-0.3,0.9-1,1.6-1.9,1.9l0,0c-1,0.4-1.7,1.2-2,2.2l0,0c-0.2,0.9-0.9,1.7-1.7,2.1l0,0c-1,0.5-1.6,1.4-1.8,2.4l0,0
		c-0.1,0.9-0.7,1.8-1.5,2.3l0,0c-0.9,0.5-1.6,1.5-1.6,2.6l0,0c0,1-0.5,1.8-1.3,2.4l0,0c-0.9,0.6-1.3,1.7-1.3,2.7l0,0
		c0,1-0.3,1.9-1,2.5l0,0c-0.8,0.7-1.2,1.8-1,2.8l0,0c0.1,0.9-0.2,1.9-0.8,2.6l0,0c-0.7,0.8-1,1.9-0.7,2.9l0,0c0.2,0.9,0,1.9-0.5,2.7
		l0,0c-0.6,0.9-0.8,2-0.4,3l0,0c0.3,0.9,0.2,1.9-0.3,2.7l0,0c-0.5,0.9-0.6,2-0.1,3l0,0c0.4,0.9,0.4,1.9,0,2.7l0,0
		c-0.4,1-0.4,2.1,0.1,3l0,0c0.5,0.8,0.6,1.8,0.3,2.7l0,0c-0.4,1-0.2,2.1,0.4,3l0,0c0.6,0.8,0.8,1.8,0.5,2.7l0,0
		c-0.3,1,0,2.1,0.7,2.9l0,0c0.6,0.7,0.9,1.7,0.8,2.6l-0.2,1.7l1.3,1.2c0.7,0.6,1.1,1.6,1,2.5l0,0c0,1.1,0.4,2.1,1.3,2.7l0,0
		c0.8,0.6,1.2,1.4,1.3,2.4l0,0c0,1.1,0.6,2,1.5,2.6l0,0c0.8,0.5,1.4,1.3,1.5,2.3l0,0c0.2,1.1,0.8,2,1.8,2.4l0,0
		c0.9,0.4,1.5,1.2,1.7,2.1l0,0c0.3,1,1,1.9,2,2.2l0,0c0.9,0.3,1.6,1,1.9,1.9l0,0c0.4,1,1.2,1.7,2.2,2l0,0c0.9,0.2,1.7,0.9,2.1,1.7
		l0,0c0.5,1,1.4,1.6,2.4,1.8l0,0c0.9,0.1,1.8,0.7,2.3,1.5l0,0c0.5,0.9,1.5,1.5,2.6,1.6l0,0c1,0,1.8,0.5,2.4,1.3l0,0
		c0.7,0.9,1.7,1.4,2.8,1.3l0,0c1,0,1.9,0.3,2.5,1.1l0,0c0.7,0.8,1.8,1.2,2.8,1l0,0c0.9-0.1,1.9,0.2,2.6,0.8l0,0
		c0.8,0.7,1.9,1,2.9,0.7l0,0c0.9-0.2,1.9,0,2.7,0.5l0,0c0.9,0.6,2,0.8,3,0.4l0,0c0.9-0.3,1.9-0.2,2.7,0.3l0,0c0.9,0.5,2,0.6,3,0.1
		l0,0c0.9-0.4,1.9-0.4,2.7,0l0,0c1,0.4,2.1,0.4,3-0.1l0,0c0.8-0.5,1.8-0.6,2.7-0.3l0,0c1,0.4,2.1,0.2,3-0.4l0,0
		c0.8-0.6,1.8-0.8,2.7-0.5l0,0c1,0.3,2.1,0,2.9-0.7l0,0c0.7-0.6,1.7-0.9,2.6-0.8l0,0c1.1,0.2,2.1-0.2,2.8-1l0,0
		c0.6-0.7,1.6-1.1,2.5-1.1l0,0c1.1,0,2.1-0.4,2.7-1.3l0,0c0.6-0.8,1.5-1.2,2.4-1.3l0,0c1.1,0,2-0.6,2.6-1.6l0,0
		c0.5-0.8,1.3-1.4,2.3-1.5l0,0c1.1-0.2,2-0.8,2.4-1.8l0,0c0.4-0.9,1.2-1.5,2.1-1.7l0,0c1-0.3,1.9-1,2.2-2l0,0c0.3-0.9,1-1.6,1.9-1.9
		l0,0c1-0.4,1.7-1.2,2-2.2l0,0c0.2-0.9,0.9-1.7,1.7-2.1l0,0c1-0.5,1.6-1.4,1.8-2.4l0,0c0.1-0.9,0.7-1.8,1.5-2.3l0,0
		c0.9-0.5,1.5-1.5,1.6-2.6l0,0c0-1,0.5-1.8,1.3-2.4l0,0c0.9-0.6,1.3-1.7,1.3-2.7l0,0c0-1,0.3-1.9,1.1-2.5l0,0c0.8-0.7,1.2-1.8,1-2.8
		l0,0c-0.1-0.9,0.2-1.9,0.8-2.6l0,0c0.7-0.8,1-1.9,0.7-2.9l0,0c-0.2-0.9,0-1.9,0.5-2.7l0,0c0.6-0.9,0.8-2,0.4-3l0,0
		c-0.3-0.9-0.2-1.9,0.3-2.7l0,0c0.5-0.9,0.6-2,0.1-3l0,0C133.1,76,133.1,75,133.5,74.1z"/>
	
		<linearGradient id="SVGID_2_" gradientUnits="userSpaceOnUse" x1="21.66" y1="76.5" x2="128.34" y2="76.5" gradientTransform="matrix(1 0 0 -1 0 152)">
		<stop  offset="0" style="stop-color:#29173E"/>
		<stop  offset="1" style="stop-color:#1C0F21"/>
	</linearGradient>
	<path class="st1" d="M75,22.2c-29.5,0-53.3,23.9-53.3,53.3s23.9,53.3,53.3,53.3s53.3-23.9,53.3-53.3l0,0
		C128.3,46,104.5,22.2,75,22.2z M75,127c-28.4,0-51.5-23.1-51.5-51.5S46.6,24,75,24s51.5,23.1,51.5,51.5S103.4,127,75,127z"/>
	
		<linearGradient id="SVGID_3_" gradientUnits="userSpaceOnUse" x1="25.16" y1="76.5" x2="124.82" y2="76.5" gradientTransform="matrix(1 0 0 -1 0 152)">
		<stop  offset="0" style="stop-color:#29173E"/>
		<stop  offset="1" style="stop-color:#1C0F21"/>
	</linearGradient>
	<path class="st2" d="M75,25.7c-27.5,0-49.8,22.3-49.8,49.8s22.3,49.8,49.8,49.8s49.8-22.3,49.8-49.8c0,0,0,0,0,0
		C124.8,48,102.5,25.7,75,25.7C75,25.7,75,25.7,75,25.7z M75,124.9c-27.3,0-49.4-22.1-49.4-49.4S47.7,26.1,75,26.1
		s49.4,22.1,49.4,49.4l0,0C124.4,102.8,102.3,124.9,75,124.9z"/>
	
		<linearGradient id="SVGID_4_" gradientUnits="userSpaceOnUse" x1="22.86" y1="74.105" x2="127.14" y2="74.105" gradientTransform="matrix(1 0 0 -1 0 152)">
		<stop  offset="0" style="stop-color:#29173E"/>
		<stop  offset="1" style="stop-color:#1C0F21"/>
	</linearGradient>
	<polygon class="st3" points="125.9,90.5 24.3,90.5 22.9,77.6 23.6,65.3 126.3,65.3 127.1,77.4 	"/>
	
		<linearGradient id="SVGID_5_" gradientUnits="userSpaceOnUse" x1="71.2828" y1="117.8857" x2="79.8828" y2="117.8857" gradientTransform="matrix(1 0 0 -1 0 152)">
		<stop  offset="0" style="stop-color:#29173E"/>
		<stop  offset="1" style="stop-color:#1C0F21"/>
	</linearGradient>
	<path class="st4" d="M79.5,32.9H77c-0.2,0-0.3-0.1-0.3-0.2l-0.8-2.4c-0.1-0.2-0.2-0.3-0.4-0.2c-0.1,0-0.2,0.1-0.2,0.2l-0.8,2.4
		c0,0.1-0.2,0.2-0.3,0.2h-2.5c-0.2,0-0.3,0.1-0.3,0.3c0,0.1,0.1,0.2,0.1,0.3l2,1.5c0.1,0.1,0.2,0.2,0.1,0.4l-0.8,2.4
		c-0.1,0.2,0.1,0.4,0.2,0.4c0.1,0,0.2,0,0.3,0l2-1.5c0.1-0.1,0.3-0.1,0.4,0l2,1.5c0.2,0.1,0.4,0.1,0.5-0.1c0.1-0.1,0.1-0.2,0-0.3
		l-0.8-2.4c0-0.2,0.1-0.3,0.2-0.4l2-1.5c0.2-0.1,0.2-0.3,0.1-0.5C79.8,33,79.7,32.9,79.5,32.9z"/>
	<path class="st5" d="M97.5,38.9h-1.7c-0.1,0-0.2-0.1-0.2-0.2l-0.5-1.6c0-0.1-0.2-0.2-0.3-0.1c-0.1,0-0.1,0.1-0.1,0.1l-0.5,1.6
		c0,0.1-0.1,0.2-0.2,0.2h-1.6c-0.1,0-0.2,0.1-0.2,0.2c0,0.1,0,0.1,0.1,0.2l1.3,1c0.1,0.1,0.1,0.2,0.1,0.3l-0.5,1.6
		c0,0.1,0,0.2,0.2,0.3c0.1,0,0.1,0,0.2,0l1.3-1c0.1-0.1,0.2-0.1,0.3,0l1.3,1c0.1,0.1,0.2,0.1,0.3,0c0-0.1,0.1-0.1,0-0.2l-0.5-1.6
		c0-0.1,0-0.2,0.1-0.3l1.3-1c0.1-0.1,0.1-0.2,0.1-0.3C97.6,38.9,97.6,38.9,97.5,38.9z"/>
	
		<linearGradient id="SVGID_6_" gradientUnits="userSpaceOnUse" x1="106.01" y1="102.6715" x2="109.67" y2="102.6715" gradientTransform="matrix(1 0 0 -1 0 152)">
		<stop  offset="0" style="stop-color:#29173E"/>
		<stop  offset="1" style="stop-color:#1C0F21"/>
	</linearGradient>
	<path class="st6" d="M109.5,48.8h-1.1c-0.1,0-0.1,0-0.1-0.1l-0.3-1c0-0.1-0.1-0.1-0.2-0.1c0,0-0.1,0-0.1,0.1l-0.3,1
		c0,0.1-0.1,0.1-0.1,0.1h-1.1c-0.1,0-0.1,0.1-0.1,0.1c0,0.1,0,0.1,0.1,0.1l0.9,0.6c0,0,0,0.1,0,0.2l-0.3,1c0,0.1,0,0.2,0.1,0.2
		c0,0,0.1,0,0.1,0l0.9-0.6c0.1,0,0.1,0,0.2,0l0.9,0.6c0.1,0,0.2,0,0.2,0c0,0,0-0.1,0-0.1l-0.3-1c0,0,0-0.1,0-0.2l0.9-0.6
		C109.6,49,109.6,48.9,109.5,48.8C109.6,48.8,109.5,48.8,109.5,48.8z"/>
	<path class="st5" d="M52.5,38.9h1.7c0.1,0,0.2-0.1,0.2-0.2l0.5-1.6c0-0.1,0.2-0.2,0.3-0.1c0.1,0,0.1,0.1,0.1,0.1l0.5,1.6
		c0,0.1,0.1,0.2,0.2,0.2h1.7c0.1,0,0.2,0.1,0.2,0.2c0,0.1,0,0.1-0.1,0.2l-1.3,1c-0.1,0.1-0.1,0.2-0.1,0.3l0.5,1.6
		c0,0.1,0,0.2-0.2,0.3c-0.1,0-0.1,0-0.2,0l-1.3-1c-0.1-0.1-0.2-0.1-0.3,0l-1.3,1c-0.1,0.1-0.2,0.1-0.3,0c0-0.1-0.1-0.1,0-0.2
		l0.5-1.6c0-0.1,0-0.2-0.1-0.3l-1.3-1c-0.1-0.1-0.1-0.2-0.1-0.3C52.4,38.9,52.4,38.9,52.5,38.9z"/>
	
		<linearGradient id="SVGID_7_" gradientUnits="userSpaceOnUse" x1="40.33" y1="102.6715" x2="43.9868" y2="102.6715" gradientTransform="matrix(1 0 0 -1 0 152)">
		<stop  offset="0" style="stop-color:#29173E"/>
		<stop  offset="1" style="stop-color:#1C0F21"/>
	</linearGradient>
	<path class="st7" d="M40.5,48.8h1.1c0.1,0,0.1,0,0.1-0.1l0.3-1c0-0.1,0.1-0.1,0.2-0.1c0,0,0.1,0,0.1,0.1l0.3,1
		c0,0.1,0.1,0.1,0.1,0.1h1.1c0.1,0,0.1,0.1,0.1,0.1c0,0.1,0,0.1-0.1,0.1l-0.9,0.6c-0.1,0-0.1,0.1,0,0.2l0.3,1c0,0.1,0,0.2-0.1,0.2
		c0,0-0.1,0-0.1,0l-0.9-0.6c-0.1,0-0.1,0-0.2,0L41.2,51c-0.1,0-0.2,0-0.2,0c0,0,0-0.1,0-0.1l0.3-1c0-0.1,0-0.1,0-0.2l-0.9-0.6
		C40.3,49,40.3,48.9,40.5,48.8C40.4,48.8,40.4,48.8,40.5,48.8z"/>
	<path class="st5" d="M47.8,75.9h-2.9v-3.7l-2.1,3.7h-1.9l-2.1-3.7v3.7h-2.9v-7.8h3.5l2.4,4.4l2.4-4.4h3.6L47.8,75.9z"/>
	<path class="st5" d="M57.3,74.5H54l-0.5,1.4h-3.2l3.2-7.8h4.3l3.3,7.8h-3.2L57.3,74.5z M56.5,72.5l-0.9-2.4l-0.9,2.4H56.5z"/>
	<path class="st5" d="M67.3,68c3.1,0,4.7,1.1,4.9,3.5h-3c-0.1-0.7-0.7-1.1-1.9-1.1c-1.7,0-2,0.7-2,1.6s0.3,1.6,2,1.6
		c1.2,0,1.8-0.4,1.9-1.1h3C72,74.9,70.4,76,67.3,76c-3.4,0-4.9-1.3-4.9-4S63.9,68,67.3,68z"/>
	<path class="st5" d="M85,68.1v7.8h-2.9v-2.7h-4.6v2.7h-2.9v-7.8h2.9v2.7h4.6v-2.7H85z"/>
	<path class="st5" d="M90.6,75.9h-2.9v-7.8h2.9V75.9z"/>
	<path class="st5" d="M103.2,68.1v7.8h-3.8l-3.3-4.6v4.6h-2.9v-7.8H97l3.3,4.6v-4.6H103.2z"/>
	<path class="st5" d="M108.8,70.4v0.7h5.3V73h-5.3v0.7h5.3V76h-8.2v-7.8h8.2v2.2H108.8z"/>
	<path class="st5" d="M39.8,84.7v2.4h-8v-7.8h2.9v5.3H39.8z"/>
	<path class="st5" d="M45.2,81.6v0.7h5.3v1.9h-5.3v0.7h5.3v2.2h-8.2v-7.8h8.2v2.2H45.2z"/>
	<path class="st5" d="M60,85.7h-3.3l-0.5,1.4H53l3.2-7.8h4.3l3.2,7.8h-3.2L60,85.7z M59.2,83.7l-0.9-2.4l-0.9,2.4H59.2z"/>
	<path class="st5" d="M73.9,84.9l1.4,2.2h-3.4l-1.1-1.8h-1.7v1.8h-2.9v-7.8h6.1c1.6-0.1,2.9,1.1,3,2.7c0,0.1,0,0.2,0,0.3
		C75.3,83.4,74.8,84.4,73.9,84.9z M69.1,82.9h2.7c0.3,0,0.7,0,0.7-0.5s-0.4-0.5-0.7-0.5h-2.7V82.9z"/>
	<path class="st5" d="M87.8,79.3v7.8H84l-3.3-4.6v4.6h-2.9v-7.8h3.8l3.4,4.6v-4.6H87.8z"/>
	<path class="st5" d="M93.3,87.1h-2.9v-7.8h2.9V87.1z"/>
	<path class="st5" d="M106,79.3v7.8h-3.8l-3.4-4.6v4.6H96v-7.8h3.8l3.3,4.6v-4.6H106z"/>
	<path class="st5" d="M113.2,82.9h5v4.2h-1.7l-0.2-1.1c-0.9,0.9-2.1,1.3-3.3,1.2c-2.9,0-4.6-1.3-4.6-4s1.7-4,4.9-4s4.7,1.1,4.8,3.2
		h-3c-0.1-0.4-0.7-0.8-1.9-0.8c-1.7,0-2,0.7-2,1.7s0.3,1.8,2,1.8c1.1,0,1.8-0.2,1.9-0.7h-2.1L113.2,82.9z"/>
	<path class="st8" d="M57.5,45.4H58c0.3,0,0.6,0.2,0.7,0.5c0,0.1,0,0.1,0,0.2v0.1c0,0.4-0.1,0.6-0.3,0.6c0.2,0.1,0.3,0.2,0.3,0.6
		v0.2c0,0.5-0.2,0.8-0.7,0.8h-0.5L57.5,45.4z M58,46.7c0.3,0,0.4-0.1,0.4-0.5v-0.1c0-0.3-0.1-0.4-0.4-0.4h-0.2v1L58,46.7z
		 M57.8,48.2H58c0.3,0,0.4-0.2,0.4-0.5v-0.2c0-0.3-0.1-0.5-0.4-0.5h-0.2L57.8,48.2z"/>
	<path class="st8" d="M61.3,46.2v1.5c0,0.5-0.2,0.8-0.7,0.8s-0.7-0.3-0.7-0.8v-1.5c0-0.5,0.2-0.8,0.7-0.8S61.3,45.7,61.3,46.2z
		 M60.3,46.2v1.6c0,0.3,0.1,0.5,0.3,0.5s0.3-0.1,0.3-0.5v-1.6c0-0.3-0.1-0.5-0.3-0.5S60.3,45.8,60.3,46.2L60.3,46.2z"/>
	<path class="st8" d="M63.8,46.2v1.5c0,0.5-0.2,0.8-0.7,0.8s-0.7-0.3-0.7-0.8v-1.5c0-0.5,0.2-0.8,0.7-0.8S63.8,45.7,63.8,46.2z
		 M62.8,46.2v1.6c0,0.3,0.1,0.5,0.3,0.5s0.3-0.1,0.3-0.5v-1.6c0-0.3-0.1-0.5-0.3-0.5S62.8,45.8,62.8,46.2L62.8,46.2z"/>
	<path class="st8" d="M65.4,45.7h-0.5v-0.3h1.3v0.3h-0.5v2.8h-0.3V45.7z"/>
	<path class="st8" d="M68.5,47.6L68.5,47.6c0,0.5-0.1,0.9-0.6,0.9s-0.6-0.4-0.6-0.8v-1.6c0-0.5,0.2-0.8,0.6-0.8s0.6,0.4,0.6,0.8v0.1
		h-0.3v-0.1c0-0.2,0-0.5-0.3-0.5s-0.3,0.2-0.3,0.5v1.6c0,0.3,0.1,0.5,0.3,0.5s0.3-0.2,0.3-0.5v-0.1H68.5z"/>
	<path class="st8" d="M70.1,47.5l-0.2,1h-0.3l0.5-3.1h0.5l0.5,3.1h-0.3l-0.2-1H70.1z M70.6,47.2c-0.1-0.7-0.2-1.2-0.2-1.5l0,0
		c0,0.2-0.1,0.9-0.2,1.5H70.6z"/>
	<path class="st8" d="M73.8,47.2c0-0.6,0-1.2,0-1.5l0,0c-0.1,0.5-0.3,1.9-0.5,2.8H73c-0.1-0.8-0.4-2.2-0.4-2.8l0,0c0,0.3,0,1,0,1.6
		v1.2h-0.3v-3.1h0.5c0.2,0.9,0.4,2,0.4,2.4l0,0c0-0.4,0.3-1.6,0.5-2.4h0.5v3.1h-0.3L73.8,47.2z"/>
	<path class="st8" d="M75.5,45.4h0.6c0.4,0,0.7,0.2,0.7,0.7v0.2c0,0.5-0.1,0.8-0.7,0.8h-0.2v1.4h-0.3V45.4z M75.8,46.8H76
		c0.3,0,0.4-0.2,0.4-0.5v-0.2c0-0.2-0.1-0.5-0.4-0.5h-0.2L75.8,46.8z"/>
	<path class="st8" d="M80.8,46.2v1.5c0,0.5-0.2,0.8-0.7,0.8s-0.7-0.3-0.7-0.8v-1.5c0-0.5,0.2-0.8,0.7-0.8S80.8,45.7,80.8,46.2z
		 M79.8,46.2v1.6c0,0.3,0.1,0.5,0.3,0.5s0.3-0.1,0.3-0.5v-1.6c0-0.3-0.1-0.5-0.3-0.5S79.8,45.8,79.8,46.2L79.8,46.2z"/>
	<path class="st8" d="M82.1,48.5v-3.1h0.4c0.2,0.6,0.6,2.2,0.7,2.4l0,0c0-0.4,0-0.8,0-1.3v-1.1h0.3v3.1h-0.4
		c-0.2-0.6-0.6-2.3-0.7-2.5l0,0c0,0.4,0,0.9,0,1.4v1.1H82.1z"/>
	<path class="st8" d="M84.8,45.4h0.3v2.8h0.8v0.3h-1.1V45.4z"/>
	<path class="st8" d="M87.4,45.4v3.1h-0.3v-3.1H87.4z"/>
	<path class="st8" d="M88.8,48.5v-3.1h0.4c0.2,0.6,0.6,2.2,0.6,2.4l0,0c0-0.4,0-0.8,0-1.3v-1.1h0.3v3.1h-0.4
		c-0.2-0.6-0.6-2.3-0.7-2.5l0,0c0,0.4,0,0.9,0,1.4v1.1H88.8z"/>
	<path class="st8" d="M92.5,47h-0.7v1.2h0.8v0.3h-1.1v-3.1h1.1v0.3h-0.7v1h0.7V47z"/>
	
		<linearGradient id="SVGID_8_" gradientUnits="userSpaceOnUse" x1="82.98" y1="45.48" x2="89.8" y2="45.48" gradientTransform="matrix(1 0 0 -1 0 152)">
		<stop  offset="0" style="stop-color:#29173E"/>
		<stop  offset="1" style="stop-color:#1C0F21"/>
	</linearGradient>
	<circle class="st9" cx="86.4" cy="106.5" r="3.4"/>
	
		<linearGradient id="SVGID_9_" gradientUnits="userSpaceOnUse" x1="74.27" y1="40.93" x2="81.09" y2="40.93" gradientTransform="matrix(1 0 0 -1 0 152)">
		<stop  offset="0" style="stop-color:#29173E"/>
		<stop  offset="1" style="stop-color:#1C0F21"/>
	</linearGradient>
	<circle class="st10" cx="77.7" cy="111.1" r="3.4"/>
	
		<linearGradient id="SVGID_10_" gradientUnits="userSpaceOnUse" x1="65.56" y1="36.76" x2="72.38" y2="36.76" gradientTransform="matrix(1 0 0 -1 0 152)">
		<stop  offset="0" style="stop-color:#29173E"/>
		<stop  offset="1" style="stop-color:#1C0F21"/>
	</linearGradient>
	<circle class="st11" cx="69" cy="115.2" r="3.4"/>
	
		<linearGradient id="SVGID_11_" gradientUnits="userSpaceOnUse" x1="65.56" y1="45.48" x2="72.38" y2="45.48" gradientTransform="matrix(1 0 0 -1 0 152)">
		<stop  offset="0" style="stop-color:#29173E"/>
		<stop  offset="1" style="stop-color:#1C0F21"/>
	</linearGradient>
	<circle class="st12" cx="69" cy="106.5" r="3.4"/>
	
		<linearGradient id="SVGID_12_" gradientUnits="userSpaceOnUse" x1="74.27" y1="50.02" x2="81.09" y2="50.02" gradientTransform="matrix(1 0 0 -1 0 152)">
		<stop  offset="0" style="stop-color:#29173E"/>
		<stop  offset="1" style="stop-color:#1C0F21"/>
	</linearGradient>
	<circle class="st13" cx="77.7" cy="102" r="3.4"/>
	
		<linearGradient id="SVGID_13_" gradientUnits="userSpaceOnUse" x1="65.56" y1="54.19" x2="72.38" y2="54.19" gradientTransform="matrix(1 0 0 -1 0 152)">
		<stop  offset="0" style="stop-color:#29173E"/>
		<stop  offset="1" style="stop-color:#1C0F21"/>
	</linearGradient>
	<circle class="st14" cx="69" cy="97.8" r="3.4"/>
	<path class="st5" d="M77.5,111.4l-8.7-4.5c-0.1-0.1-0.2-0.2-0.2-0.3c0-0.1,0.1-0.3,0.2-0.3l8.7-4.6l0.3,0.7l-8.1,4.2l8.1,4.2
		L77.5,111.4z"/>
	<path class="st5" d="M69,115.6c-0.2,0-0.4-0.1-0.4-0.4c0-0.1,0-0.2,0.1-0.2l5.6-8.5L68.7,98c-0.1-0.1-0.1-0.3,0-0.5
		c0.1-0.1,0.3-0.2,0.4-0.1l8.7,4.2l8.7,4.6c0.1,0.1,0.2,0.2,0.2,0.3c0,0.1-0.1,0.3-0.2,0.3l-8.7,4.5L69,115.6
		C69.1,115.6,69,115.6,69,115.6z M74.7,107.2l-4.7,7.1l7.1-3.4L74.7,107.2z M75.2,106.5l2.7,4.1l7.8-4.1l-7.8-4L75.2,106.5z
		 M70,98.7l4.7,7.1l2.4-3.7L70,98.7z"/>
	<path class="st5" d="M86.4,107.7c-0.6,0-1.1-0.5-1.1-1.1s0.5-1.1,1.1-1.1c0.6,0,1.1,0.5,1.1,1.1l0,0
		C87.5,107.1,87,107.7,86.4,107.7z M86.4,106.2c-0.2,0-0.4,0.2-0.4,0.4c0,0.2,0.2,0.4,0.4,0.4c0.2,0,0.4-0.2,0.4-0.4c0,0,0,0,0,0
		C86.8,106.3,86.6,106.1,86.4,106.2z"/>
	<path class="st5" d="M77.7,103.1c-0.6,0-1.1-0.5-1.1-1.1c0-0.6,0.5-1.1,1.1-1.1c0.6,0,1.1,0.5,1.1,1.1c0,0,0,0,0,0
		C78.8,102.6,78.3,103.1,77.7,103.1z M77.7,101.6c-0.2,0-0.4,0.2-0.4,0.4s0.2,0.4,0.4,0.4s0.4-0.2,0.4-0.4c0,0,0,0,0,0
		C78.1,101.8,77.9,101.6,77.7,101.6C77.7,101.6,77.7,101.6,77.7,101.6z"/>
	<path class="st5" d="M77.7,112.2c-0.6,0-1.1-0.5-1.1-1.1s0.5-1.1,1.1-1.1c0.6,0,1.1,0.5,1.1,1.1l0,0
		C78.8,111.7,78.3,112.2,77.7,112.2z M77.7,110.7c-0.2,0-0.4,0.2-0.4,0.4s0.2,0.4,0.4,0.4s0.4-0.2,0.4-0.4c0,0,0,0,0,0
		C78.1,110.9,77.9,110.7,77.7,110.7z"/>
	<path class="st5" d="M69,99c-0.6,0-1.1-0.5-1.1-1.1c0-0.6,0.5-1.1,1.1-1.1c0.6,0,1.1,0.5,1.1,1.1c0,0,0,0,0,0
		C70.1,98.5,69.6,99,69,99z M69,97.5c-0.2,0-0.4,0.2-0.4,0.4s0.2,0.4,0.4,0.4s0.4-0.2,0.4-0.4c0,0,0,0,0,0
		C69.4,97.7,69.3,97.5,69,97.5C69,97.4,69,97.4,69,97.5L69,97.5z"/>
	<path class="st5" d="M69,107.7c-0.6,0-1.1-0.5-1.1-1.1c0-0.6,0.5-1.1,1.1-1.1c0.6,0,1.1,0.5,1.1,1.1c0,0,0,0,0,0
		C70.1,107.1,69.6,107.7,69,107.7z M69,106.2c-0.2,0-0.4,0.2-0.4,0.4c0,0.2,0.2,0.4,0.4,0.4c0.2,0,0.4-0.2,0.4-0.4c0,0,0,0,0,0
		C69.4,106.3,69.2,106.1,69,106.2z"/>
	<path class="st5" d="M69,116.4c-0.6,0-1.1-0.5-1.1-1.1s0.5-1.1,1.1-1.1c0.6,0,1.1,0.5,1.1,1.1c0,0,0,0,0,0
		C70.1,115.9,69.6,116.4,69,116.4z M69,114.9c-0.2,0-0.4,0.2-0.4,0.4s0.2,0.4,0.4,0.4s0.4-0.2,0.4-0.4c0,0,0,0,0,0
		C69.4,115,69.2,114.9,69,114.9z"/>
	<text transform="matrix(0.88 0 0 1 70.5903 63.77)" class="st5 st15 st16">d</text>
	<text transform="matrix(0.88 0 0 1 74.3037 63.77)" class="st5 st15 st16">e</text>
	<g>
		<path class="st5" d="M56.7,56.2h-2.5L53.7,57h-1.2l2.2-4.2h1.5l2.2,4.2h-1.2L56.7,56.2z M56.3,55.4l-0.9-1.7l-0.9,1.7H56.3z"/>
		<path class="st5" d="M62.6,55.8l0.8,1.2h-1.3l-0.7-1.1h-1.7V57h-1.1v-4.2h3.3c1,0,1.6,0.6,1.6,1.5C63.5,55.1,63.2,55.6,62.6,55.8z
			 M59.7,55h1.9c0.3,0,0.8,0,0.8-0.6c0-0.6-0.5-0.6-0.8-0.6h-1.9V55z"/>
		<path class="st5" d="M68.7,57.6L68,56.9c-0.4,0.2-0.9,0.3-1.5,0.3c-1.8,0-2.6-0.8-2.6-2.2c0-1.4,0.8-2.2,2.6-2.2
			c1.8,0,2.6,0.8,2.6,2.2c0,0.5-0.1,0.9-0.3,1.2l0.7,0.7L68.7,57.6z M66.4,56.2c1.1,0,1.6-0.4,1.6-1.3c0-0.9-0.4-1.2-1.6-1.2
			s-1.6,0.4-1.6,1.2C64.9,55.8,65.3,56.2,66.4,56.2z"/>
		<path class="st5" d="M72.1,57.1c-1.8,0-2.6-0.7-2.6-2.2v-2.1h1.1v2.1c0,0.6,0.2,1.3,1.6,1.3c1.4,0,1.6-0.7,1.6-1.3v-2.1h1.1v2.1
			C74.8,56.4,74,57.1,72.1,57.1z"/>
		<path class="st5" d="M76.3,57h-1.1v-4.2h1.1V57z"/>
		<path class="st5" d="M81.8,53.8h-2V57h-1.1v-3.3h-2v-0.9h5.2V53.8z"/>
		<path class="st5" d="M83.3,53.7v0.9h3.4v0.8h-3.4v0.9h3.4V57h-4.4v-4.2h4.4v0.9H83.3z"/>
		<path class="st5" d="M92.1,53.8h-2V57H89v-3.3h-2v-0.9h5.2V53.8z"/>
		<path class="st5" d="M92.2,54.9c0-1.4,0.8-2.2,2.6-2.2c1.8,0,2.6,0.8,2.6,2.2c0,1.4-0.8,2.2-2.6,2.2C93,57.1,92.2,56.3,92.2,54.9z
			 M96.4,54.9c0-0.9-0.4-1.2-1.6-1.2c-1.1,0-1.6,0.4-1.6,1.2c0,0.9,0.4,1.3,1.6,1.3C95.9,56.2,96.4,55.8,96.4,54.9z"/>
	</g>
	<path class="st5" d="M49.4,57H36.4c-0.4,0-0.7-0.2-0.7-0.4l0,0c0-0.2,0.3-0.5,0.7-0.5h12.9c0.4,0,0.7,0.2,0.7,0.5l0,0
		C50,56.8,49.7,57,49.4,57z"/>
	<path class="st5" d="M113.6,57h-12.4c-0.4,0-0.7-0.2-0.7-0.4l0,0c0-0.2,0.3-0.5,0.7-0.5h12.4c0.4,0,0.7,0.2,0.7,0.5l0,0
		C114.2,56.8,114,57,113.6,57z"/>
</g>
</svg>
