<svg xmlns="http://www.w3.org/2000/svg" viewBox="0 0 150 150"><defs><style>.cls-1{fill:#f9a31a;}.cls-2,.cls-3{fill:#fff;}.cls-3{font-size:22px;font-family:MonumentExtended-Regular, Monument Extended;}.cls-4{letter-spacing:-0.24em;}.cls-5{letter-spacing:-0.07em;}.cls-6,.cls-7{fill:none;stroke-miterlimit:10;}.cls-6{stroke:#373737;stroke-width:3px;}.cls-7{stroke:#f7931e;}.cls-8{fill:#373737;}</style></defs><g id="Layer_1" data-name="Layer 1"><polygon class="cls-1" points="17.87 71.25 20.03 81.65 68.34 129.25 77.72 132.5 96.2 114.89 131.78 77.96 129.13 66.94 80.94 21.44 71.95 17.72 50.16 40.16 17.87 71.25"/><path class="cls-2" d="M67.71,46.35a1.41,1.41,0,0,1-1.61,1.46H61.6V42.87h4.29c1.12,0,1.47.51,1.47,1.26a1.45,1.45,0,0,1-.39.92A1.62,1.62,0,0,1,67.71,46.35Zm-4.28-1.74h1.69c.18,0,.41,0,.41-.27s-.23-.27-.41-.27H63.43Zm2.45,1.6c0-.26-.23-.26-.41-.26h-2v.52h2C65.65,46.47,65.88,46.47,65.88,46.21Z"/><path class="cls-2" d="M68.41,45.33c0-1.71.93-2.53,3.1-2.53s3.1.83,3.1,2.53-.94,2.55-3.1,2.55S68.41,47.05,68.41,45.33Zm4.37,0c0-.51-.19-1-1.27-1s-1.27.46-1.27,1,.19,1,1.27,1S72.78,45.85,72.78,45.33Z"/><path class="cls-2" d="M75.45,45.33c0-1.71.93-2.53,3.1-2.53s3.1.83,3.1,2.53-.94,2.55-3.1,2.55S75.45,47.05,75.45,45.33Zm4.36,0c0-.51-.18-1-1.26-1s-1.27.46-1.27,1,.19,1,1.27,1S79.81,45.85,79.81,45.33Z"/><path class="cls-2" d="M88.48,44.42H86.36v3.39H84.53V44.42H82.42V42.87h6.06Z"/><path class="cls-2" d="M63.94,48.5c2,0,3,.69,3.08,2.25H65.14c-.07-.47-.43-.7-1.2-.7-1.09,0-1.27.46-1.27,1s.19,1,1.27,1c.77,0,1.13-.24,1.2-.71H67c-.08,1.57-1.1,2.26-3.08,2.26-2.17,0-3.1-.82-3.1-2.54S61.77,48.5,63.94,48.5Z"/><path class="cls-2" d="M71.68,52.62h-2.1l-.34.88h-2l2-4.93H72l2,4.93H72Zm-.48-1.27-.57-1.51-.57,1.51Z"/><path class="cls-2" d="M82.42,53.5H80.59V51.16L79.24,53.5H78L76.7,51.16V53.5H74.87V48.57h2.25l1.52,2.82,1.53-2.82h2.25Z"/><path class="cls-2" d="M89.16,50.46a1.81,1.81,0,0,1-1.89,1.89h-2V53.5H83.4V48.57h3.87A1.81,1.81,0,0,1,89.16,50.46Zm-1.83,0c0-.34-.23-.34-.41-.34H85.23v.68h1.69C87.1,50.8,87.33,50.8,87.33,50.46Z"/><path class="cls-2" d="M50.83,59.72h1.23A1.19,1.19,0,0,1,53.31,61,1.23,1.23,0,0,1,52,62.41h-.63v2h-.52ZM51.35,62h.57c.57,0,.86-.3.86-.93a.76.76,0,0,0-.8-.87h-.63Z"/><path class="cls-2" d="M55.86,62.28v2.18h-.52V59.72h1.24A1.1,1.1,0,0,1,57.79,61a1,1,0,0,1-.64,1.1c.44.16.58.55.58,1.21v.19a4.66,4.66,0,0,0,.07,1h-.52a4.27,4.27,0,0,1-.07-1v-.16c0-.68-.14-1-.78-1Zm0-.44h.6c.58,0,.8-.33.8-.88a.69.69,0,0,0-.75-.79h-.65Z"/><path class="cls-2" d="M62.59,62.05c0,1.62-.39,2.48-1.41,2.48s-1.38-.84-1.38-2.47.47-2.4,1.4-2.4S62.59,60.45,62.59,62.05Zm-2.26,0c0,1.35.28,2,.86,2s.86-.66.86-2-.27-2-.86-2S60.33,60.76,60.33,62.05Z"/><path class="cls-2" d="M64.74,59.72h2.18v.47H65.25v1.58h1.56v.46H65.25v2.23h-.51Z"/><path class="cls-2" d="M69.42,59.72v4.74H68.9V59.72Z"/><path class="cls-2" d="M72,63.22c0,.48.27.87.79.87s.75-.27.75-.82-.2-.76-.85-1.07-1.07-.68-1.07-1.37a1.19,1.19,0,1,1,2.37,0h-.51c0-.23-.1-.78-.68-.78a.62.62,0,0,0-.65.7c0,.45.2.66.79,1,.83.39,1.13.79,1.13,1.49a1.19,1.19,0,0,1-1.29,1.3,1.22,1.22,0,0,1-1.3-1.31Z"/><path class="cls-2" d="M76.45,63.22c0,.48.27.87.79.87s.74-.27.74-.82-.2-.76-.84-1.07-1.07-.68-1.07-1.37a1.18,1.18,0,1,1,2.36,0h-.51c0-.23-.09-.78-.68-.78a.62.62,0,0,0-.65.7c0,.45.2.66.8,1,.82.39,1.13.79,1.13,1.49a1.2,1.2,0,0,1-1.3,1.3,1.22,1.22,0,0,1-1.3-1.31Z"/><path class="cls-2" d="M81.11,59.72v4.74h-.52V59.72Z"/><path class="cls-2" d="M86.06,62.05c0,1.62-.39,2.48-1.41,2.48s-1.38-.84-1.38-2.47.47-2.4,1.4-2.4S86.06,60.45,86.06,62.05Zm-2.26,0c0,1.35.28,2,.86,2s.86-.66.86-2-.27-2-.86-2S83.8,60.76,83.8,62.05Z"/><path class="cls-2" d="M88.21,64.46V59.72h.64c1.31,3.28,1.49,3.73,1.55,3.93h0c0-.63,0-1.35,0-2.11V59.72h.49v4.74h-.61c-1.36-3.44-1.53-3.88-1.58-4.07h0c0,.6,0,1.37,0,2.22v1.85Z"/><path class="cls-2" d="M93.65,63l-.35,1.5h-.52l1.15-4.74h.67l1.18,4.74h-.55L94.88,63Zm1.12-.46c-.27-1.17-.45-1.91-.51-2.29h0c-.06.42-.26,1.27-.49,2.29Z"/><path class="cls-2" d="M97.7,59.72h.52V64h1.69l-.07.46H97.7Z"/><path class="cls-2" d="M44.22,88.22a1.36,1.36,0,0,1-1.33,1.43c-1.31,0-1.41-1.38-1.41-2.56,0-1.43.38-2.49,1.47-2.49A1.28,1.28,0,0,1,44.21,86h-.55c0-.17,0-.93-.72-.93s-.9,1.06-.9,2,.12,2.09.86,2.09.76-.71.78-1Z"/><path class="cls-2" d="M46.34,84.67h.54v4.44h1.75l-.07.47H46.34Z"/><path class="cls-2" d="M53.16,87.08c0,1.68-.4,2.57-1.46,2.57s-1.44-.86-1.44-2.56.5-2.49,1.46-2.49S53.16,85.42,53.16,87.08Zm-2.34,0c0,1.4.28,2.1.89,2.1s.89-.68.89-2.09-.28-2-.89-2S50.82,85.74,50.82,87.08Z"/><path class="cls-2" d="M55.91,84.67v3.44c0,.55.16,1.08.8,1.08s.81-.45.81-1.08V84.67h.54v3.45c0,.9-.32,1.54-1.36,1.54s-1.34-.61-1.34-1.51V84.67Z"/><path class="cls-2" d="M60.42,84.67h1.1c1.13,0,1.64.79,1.64,2.33s-.46,2.58-1.72,2.58h-1ZM61,89.12h.45c.9,0,1.19-.71,1.19-2.11s-.34-1.88-1.18-1.88H61Z"/><path class="cls-2" d="M70.77,88.22a1.36,1.36,0,0,1-1.33,1.43c-1.31,0-1.41-1.38-1.41-2.56,0-1.43.38-2.49,1.47-2.49A1.28,1.28,0,0,1,70.76,86h-.54c0-.17,0-.93-.73-.93s-.9,1.06-.9,2,.12,2.09.86,2.09.76-.71.78-1Z"/><path class="cls-2" d="M75.67,87.08c0,1.68-.4,2.57-1.46,2.57s-1.43-.86-1.43-2.56.49-2.49,1.45-2.49S75.67,85.42,75.67,87.08Zm-2.34,0c0,1.4.29,2.1.89,2.1s.89-.68.89-2.09-.28-2-.89-2S73.33,85.74,73.33,87.08Z"/><path class="cls-2" d="M80.84,87.49c0-.92,0-1.84,0-2.36h0c-.18.85-.63,2.9-1,4.45h-.52c-.29-1.35-.76-3.55-.94-4.46h0c0,.58,0,1.66,0,2.5v2h-.5V84.67h.8c.4,1.54.78,3.41.9,4h0c.1-.53.57-2.57,1-4h.79v4.91h-.53Z"/><path class="cls-2" d="M83.79,84.67h1.27A1.23,1.23,0,0,1,86.36,86,1.28,1.28,0,0,1,85,87.46h-.65v2.12h-.54ZM84.33,87h.59c.59,0,.89-.31.89-1a.79.79,0,0,0-.83-.9h-.65Z"/><path class="cls-2" d="M89,84.67v3.44c0,.55.16,1.08.8,1.08s.81-.45.81-1.08V84.67h.54v3.45c0,.9-.32,1.54-1.36,1.54s-1.34-.61-1.34-1.51V84.67Z"/><path class="cls-2" d="M94.2,85.15H93.11v-.48h2.72v.48H94.74v4.43H94.2Z"/><path class="cls-2" d="M98.35,84.67v4.91h-.54V84.67Z"/><path class="cls-2" d="M100.77,89.58V84.67h.67c1.36,3.4,1.55,3.86,1.61,4.07h0c0-.66,0-1.4,0-2.19V84.67h.51v4.91h-.64c-1.41-3.57-1.58-4-1.64-4.22h0c0,.62,0,1.42,0,2.31v1.91Z"/><path class="cls-2" d="M108.54,89.58h-.43c0-.14,0-.29,0-.53a1,1,0,0,1-1,.6c-1.07,0-1.35-1.09-1.35-2.52,0-1.69.52-2.53,1.52-2.53a1.23,1.23,0,0,1,1.27,1.34H108c0-.18,0-.87-.74-.87s-.94.82-.94,2.05.18,2.06.87,2.06.82-.55.82-1.58v-.24h-.86v-.47h1.39Z"/><text class="cls-3" transform="translate(39.71 82.13)"><tspan class="cls-4">A</tspan><tspan class="cls-5" x="17.45" y="0">W</tspan><tspan x="49.46" y="0">S</tspan></text><rect class="cls-6" x="31.81" y="31.81" width="86.39" height="86.39" rx="11.19" transform="translate(75 -31.07) rotate(45)"/><rect class="cls-7" x="36.67" y="36.67" width="76.65" height="76.65" rx="9.93" transform="translate(75 -31.07) rotate(45)"/><path class="cls-8" d="M56.67,97.53q.16-.27.54,0a35.65,35.65,0,0,0,18.19,4.85,36.2,36.2,0,0,0,12.95-2.44l.48-.2.45-.21a.6.6,0,0,1,.79.21c.19.26.13.51-.19.73s-.91.63-1.53,1a25.18,25.18,0,0,1-6.43,2.65A27.19,27.19,0,0,1,75,105a26.7,26.7,0,0,1-9.87-1.82,27.48,27.48,0,0,1-8.33-5.13.5.5,0,0,1-.2-.34A.4.4,0,0,1,56.67,97.53Z"/><path class="cls-8" d="M86.54,98.1a.94.94,0,0,1,.2-.27,5.35,5.35,0,0,1,1.61-.77,11.46,11.46,0,0,1,2.47-.37,1.94,1.94,0,0,1,.64,0c1,.09,1.6.25,1.8.5a1.06,1.06,0,0,1,.14.6v.24a7.73,7.73,0,0,1-.64,2.76A6.35,6.35,0,0,1,91,103.38a.51.51,0,0,1-.3.14.25.25,0,0,1-.14,0c-.13-.06-.16-.19-.1-.36a12.65,12.65,0,0,0,1.24-4.05.88.88,0,0,0-.13-.54c-.23-.26-.85-.4-1.88-.4-.38,0-.82,0-1.33.07s-1.08.13-1.54.2c-.14,0-.23,0-.27-.07a.09.09,0,0,1,0-.13A.26.26,0,0,1,86.54,98.1Z"/></g></svg>