<svg xmlns="http://www.w3.org/2000/svg" xmlns:xlink="http://www.w3.org/1999/xlink" viewBox="0 0 150 150"><defs><style>.cls-1{fill:url(#Gradiente_sem_nome_52);}.cls-2,.cls-3{fill:#fff;}.cls-3{font-size:14.94px;font-family:MonumentExtended-Regular, Monument Extended;}.cls-4{letter-spacing:-0.02em;}.cls-5{letter-spacing:-0.01em;}.cls-6{letter-spacing:-0.02em;}.cls-7,.cls-8{fill:none;stroke-miterlimit:10;}.cls-7{stroke:#373737;stroke-width:3px;}.cls-8{stroke:#5a9ff2;}</style><linearGradient id="Gradiente_sem_nome_52" x1="17.87" y1="75.11" x2="131.78" y2="75.11" gradientUnits="userSpaceOnUse"><stop offset="0" stop-color="#0066d4"/><stop offset="0.74" stop-color="#2f89fc"/></linearGradient></defs><g id="Layer_1" data-name="Layer 1"><polygon class="cls-1" points="17.87 71.25 20.03 81.65 68.34 129.25 77.72 132.5 96.2 114.89 131.78 77.96 129.13 66.94 80.94 21.44 71.95 17.72 50.16 40.16 17.87 71.25"/><path class="cls-2" d="M67.71,46.35a1.41,1.41,0,0,1-1.61,1.46H61.6V42.87h4.29c1.12,0,1.47.51,1.47,1.26a1.45,1.45,0,0,1-.39.92A1.62,1.62,0,0,1,67.71,46.35Zm-4.28-1.74h1.69c.18,0,.41,0,.41-.27s-.23-.27-.41-.27H63.43Zm2.45,1.6c0-.26-.23-.26-.41-.26h-2v.52h2C65.65,46.47,65.88,46.47,65.88,46.21Z"/><path class="cls-2" d="M68.41,45.33c0-1.71.93-2.53,3.1-2.53s3.1.83,3.1,2.53-.94,2.55-3.1,2.55S68.41,47.05,68.41,45.33Zm4.37,0c0-.51-.19-1-1.27-1s-1.27.46-1.27,1,.19,1,1.27,1S72.78,45.85,72.78,45.33Z"/><path class="cls-2" d="M75.45,45.33c0-1.71.93-2.53,3.1-2.53s3.1.83,3.1,2.53-.94,2.55-3.1,2.55S75.45,47.05,75.45,45.33Zm4.36,0c0-.51-.18-1-1.26-1s-1.27.46-1.27,1,.19,1,1.27,1S79.81,45.85,79.81,45.33Z"/><path class="cls-2" d="M88.48,44.42H86.36v3.39H84.53V44.42H82.42V42.87h6.06Z"/><path class="cls-2" d="M63.94,48.5c2,0,3,.69,3.08,2.25H65.14c-.07-.47-.43-.7-1.2-.7-1.09,0-1.27.46-1.27,1s.19,1,1.27,1c.77,0,1.13-.24,1.2-.71H67c-.08,1.57-1.1,2.26-3.08,2.26-2.17,0-3.1-.82-3.1-2.54S61.77,48.5,63.94,48.5Z"/><path class="cls-2" d="M71.68,52.62h-2.1l-.34.88h-2l2-4.93H72l2,4.93H72Zm-.48-1.27-.57-1.51-.57,1.51Z"/><path class="cls-2" d="M82.42,53.5H80.59V51.16L79.24,53.5H78L76.7,51.16V53.5H74.87V48.57h2.25l1.52,2.82,1.53-2.82h2.25Z"/><path class="cls-2" d="M89.16,50.46a1.81,1.81,0,0,1-1.89,1.89h-2V53.5H83.4V48.57h3.87A1.81,1.81,0,0,1,89.16,50.46Zm-1.83,0c0-.34-.23-.34-.41-.34H85.23v.68h1.69C87.1,50.8,87.33,50.8,87.33,50.46Z"/><path class="cls-2" d="M69.86,111.53l3.87-.69,4.12-.73,1.15-.2c0-.09-.08-.15-.12-.21-1.52-1.81-3-3.61-4.55-5.43a.35.35,0,0,1-.07-.29l2.37-6.55.05-.09c.06.1.11.17.15.25l5.46,9.46,2.46,4.26c0,.07.07.15.11.22Z"/><path class="cls-2" d="M75.89,96.34c-.32.68-.63,1.36-1,2q-2.61,5.61-5.21,11.21a.35.35,0,0,1-.38.23H65.14l.41-.71q2.24-3.88,4.48-7.77a1.39,1.39,0,0,1,.31-.37l5.45-4.58.07-.06Z"/><path class="cls-2" d="M50.84,61.67h1.22A1.19,1.19,0,0,1,53.31,63,1.23,1.23,0,0,1,52,64.36h-.62v2h-.52Zm.52,2.25h.57c.56,0,.85-.3.85-.93s-.27-.88-.79-.88h-.63Z"/><path class="cls-2" d="M55.86,64.23v2.18h-.52V61.67h1.24a1.1,1.1,0,0,1,1.21,1.23,1,1,0,0,1-.63,1.1c.43.16.57.55.57,1.21v.19a4.66,4.66,0,0,0,.07,1h-.52a4.87,4.87,0,0,1-.07-1v-.16c0-.68-.14-1-.78-1Zm0-.44h.6c.58,0,.8-.33.8-.88a.7.7,0,0,0-.75-.8h-.65Z"/><path class="cls-2" d="M62.59,64c0,1.61-.39,2.48-1.41,2.48S59.8,65.64,59.8,64s.47-2.4,1.4-2.4S62.59,62.39,62.59,64Zm-2.25,0c0,1.35.27,2,.86,2s.85-.66.85-2-.27-2-.86-2S60.34,62.71,60.34,64Z"/><path class="cls-2" d="M64.74,61.67h2.18v.47H65.25v1.58h1.56v.46H65.25v2.23h-.51Z"/><path class="cls-2" d="M69.42,61.67v4.74H68.9V61.67Z"/><path class="cls-2" d="M72,65.17c0,.48.27.87.79.87s.75-.27.75-.82-.2-.76-.85-1.07-1.06-.68-1.06-1.37a1.18,1.18,0,1,1,2.36,0h-.51c0-.23-.1-.78-.68-.78a.62.62,0,0,0-.65.7c0,.45.2.66.79.95.83.39,1.13.79,1.13,1.49a1.19,1.19,0,0,1-1.29,1.3,1.22,1.22,0,0,1-1.3-1.31Z"/><path class="cls-2" d="M76.45,65.17c0,.48.27.87.79.87s.74-.27.74-.82-.2-.76-.84-1.07-1.07-.68-1.07-1.37a1.18,1.18,0,1,1,2.36,0h-.51c0-.23-.09-.78-.68-.78a.62.62,0,0,0-.65.7c0,.45.2.66.8.95.83.39,1.13.79,1.13,1.49a1.19,1.19,0,0,1-1.3,1.3,1.21,1.21,0,0,1-1.29-1.31Z"/><path class="cls-2" d="M81.11,61.67v4.74h-.52V61.67Z"/><path class="cls-2" d="M86.06,64c0,1.61-.39,2.48-1.41,2.48s-1.38-.84-1.38-2.47.47-2.4,1.4-2.4S86.06,62.39,86.06,64Zm-2.25,0c0,1.35.27,2,.85,2s.86-.66.86-2-.27-2-.86-2S83.81,62.71,83.81,64Z"/><path class="cls-2" d="M88.21,66.41V61.67h.64C90.16,65,90.34,65.4,90.4,65.6h0c0-.63,0-1.35,0-2.12V61.67h.48v4.74h-.61c-1.36-3.44-1.53-3.88-1.58-4.07h0c0,.6,0,1.37,0,2.22v1.85Z"/><path class="cls-2" d="M93.65,64.91l-.34,1.5h-.52l1.14-4.74h.67l1.18,4.74h-.55l-.35-1.5Zm1.13-.47c-.28-1.16-.46-1.9-.52-2.28h0c-.06.42-.26,1.27-.49,2.28Z"/><path class="cls-2" d="M97.7,61.67h.52V66h1.69l-.07.46H97.7Z"/><path class="cls-2" d="M44.22,86.17a1.36,1.36,0,0,1-1.33,1.43c-1.31,0-1.41-1.38-1.41-2.56,0-1.43.38-2.49,1.47-2.49A1.28,1.28,0,0,1,44.21,84h-.54c0-.17,0-.93-.73-.93s-.9,1.06-.9,2,.12,2.09.86,2.09.76-.71.78-1Z"/><path class="cls-2" d="M46.34,82.62h.54v4.44h1.76l-.08.47H46.34Z"/><path class="cls-2" d="M53.16,85c0,1.68-.4,2.57-1.46,2.57s-1.43-.86-1.43-2.56.49-2.49,1.45-2.49S53.16,83.37,53.16,85Zm-2.34,0c0,1.4.28,2.1.89,2.1s.89-.68.89-2.09-.28-2-.89-2S50.82,83.69,50.82,85Z"/><path class="cls-2" d="M55.91,82.62v3.44c0,.55.16,1.08.81,1.08s.8-.45.8-1.08V82.62h.54v3.45c0,.9-.32,1.54-1.36,1.54S55.37,87,55.37,86.1V82.62Z"/><path class="cls-2" d="M60.42,82.62h1.1c1.13,0,1.64.79,1.64,2.32s-.46,2.59-1.72,2.59h-1ZM61,87.07h.45c.89,0,1.18-.71,1.18-2.11s-.34-1.88-1.18-1.88H61Z"/><path class="cls-2" d="M70.77,86.17a1.36,1.36,0,0,1-1.33,1.43C68.13,87.6,68,86.22,68,85c0-1.43.38-2.49,1.47-2.49A1.28,1.28,0,0,1,70.76,84h-.54c0-.17,0-.93-.73-.93s-.9,1.06-.9,2,.12,2.09.86,2.09.76-.71.78-1Z"/><path class="cls-2" d="M75.67,85c0,1.68-.4,2.57-1.46,2.57s-1.43-.86-1.43-2.56.49-2.49,1.45-2.49S75.67,83.37,75.67,85Zm-2.34,0c0,1.4.29,2.1.9,2.1s.88-.68.88-2.09-.28-2-.89-2S73.33,83.69,73.33,85Z"/><path class="cls-2" d="M80.84,85.44c0-.92,0-1.84,0-2.36h0c-.18.85-.63,2.9-1,4.45h-.52c-.29-1.35-.76-3.55-.94-4.46h0c0,.57,0,1.66,0,2.5v2h-.5V82.62h.8c.4,1.54.78,3.41.9,4h0c.1-.53.58-2.57,1-4h.79v4.91h-.53Z"/><path class="cls-2" d="M83.79,82.62h1.27A1.23,1.23,0,0,1,86.36,84,1.28,1.28,0,0,1,85,85.41h-.65v2.12h-.54ZM84.33,85h.59c.59,0,.89-.31.89-1a.79.79,0,0,0-.83-.9h-.65Z"/><path class="cls-2" d="M89,82.62v3.44c0,.55.16,1.08.81,1.08s.8-.45.8-1.08V82.62h.54v3.45c0,.9-.32,1.54-1.36,1.54S88.47,87,88.47,86.1V82.62Z"/><path class="cls-2" d="M94.2,83.1H93.11v-.48h2.73v.48h-1.1v4.43H94.2Z"/><path class="cls-2" d="M98.35,82.62v4.91h-.54V82.62Z"/><path class="cls-2" d="M100.78,87.53V82.62h.66c1.36,3.4,1.55,3.86,1.61,4.07h0c0-.66,0-1.4,0-2.19V82.62h.51v4.91h-.64c-1.41-3.57-1.58-4-1.64-4.22h0c0,.62,0,1.42,0,2.31v1.91Z"/><path class="cls-2" d="M108.54,87.53h-.43c0-.14,0-.29,0-.53a1,1,0,0,1-1,.6c-1.07,0-1.35-1.09-1.35-2.52,0-1.69.52-2.53,1.52-2.53a1.23,1.23,0,0,1,1.27,1.34H108c0-.18,0-.87-.74-.87s-.94.82-.94,2,.18,2.06.87,2.06.82-.55.82-1.58v-.24h-.86v-.47h1.39Z"/><text class="cls-3" transform="translate(41.26 80.08)"><tspan class="cls-4">A</tspan><tspan class="cls-5" x="15.07" y="0">ZU</tspan><tspan class="cls-6" x="42.26" y="0">R</tspan><tspan x="55.36" y="0">E</tspan></text><rect class="cls-7" x="31.81" y="31.81" width="86.39" height="86.39" rx="11.19" transform="translate(75 -31.07) rotate(45)"/><rect class="cls-8" x="36.67" y="36.67" width="76.65" height="76.65" rx="9.93" transform="translate(75 -31.07) rotate(45)"/></g></svg>