<svg width="403" height="403" xmlns="http://www.w3.org/2000/svg" xmlns:xlink="http://www.w3.org/1999/xlink" xml:space="preserve" overflow="hidden"><defs><clipPath id="clip0"><rect x="1999" y="1038" width="403" height="403"/></clipPath><linearGradient x1="1999" y1="1239.5" x2="2402" y2="1239.5" gradientUnits="userSpaceOnUse" spreadMethod="reflect" id="fill1"><stop offset="0" stop-color="#00B8B1"/><stop offset="0.5" stop-color="#00939A"/><stop offset="1" stop-color="#006F83"/></linearGradient><linearGradient x1="2017" y1="1239" x2="2383" y2="1239" gradientUnits="userSpaceOnUse" spreadMethod="reflect" id="fill2"><stop offset="0" stop-color="#29173E"/><stop offset="0.5" stop-color="#22132F"/><stop offset="1" stop-color="#1C0F21"/></linearGradient><linearGradient x1="2029" y1="1239" x2="2371" y2="1239" gradientUnits="userSpaceOnUse" spreadMethod="reflect" id="fill3"><stop offset="0" stop-color="#29173E"/><stop offset="0.5" stop-color="#22132F"/><stop offset="1" stop-color="#1C0F21"/></linearGradient><linearGradient x1="2021" y1="1247.5" x2="2379" y2="1247.5" gradientUnits="userSpaceOnUse" spreadMethod="reflect" id="fill4"><stop offset="0" stop-color="#29173E"/><stop offset="0.5" stop-color="#22132F"/><stop offset="1" stop-color="#1C0F21"/></linearGradient><linearGradient x1="2188" y1="1097" x2="2216" y2="1097" gradientUnits="userSpaceOnUse" spreadMethod="reflect" id="fill5"><stop offset="0" stop-color="#29173E"/><stop offset="0.5" stop-color="#22132F"/><stop offset="1" stop-color="#1C0F21"/></linearGradient><linearGradient x1="2307" y1="1149" x2="2320" y2="1149" gradientUnits="userSpaceOnUse" spreadMethod="reflect" id="fill6"><stop offset="0" stop-color="#29173E"/><stop offset="0.5" stop-color="#22132F"/><stop offset="1" stop-color="#1C0F21"/></linearGradient><linearGradient x1="2081" y1="1149" x2="2093" y2="1149" gradientUnits="userSpaceOnUse" spreadMethod="reflect" id="fill7"><stop offset="0" stop-color="#29173E"/><stop offset="0.5" stop-color="#22132F"/><stop offset="1" stop-color="#1C0F21"/></linearGradient><linearGradient x1="2228" y1="1345.5" x2="2251" y2="1345.5" gradientUnits="userSpaceOnUse" spreadMethod="reflect" id="fill8"><stop offset="0" stop-color="#29173E"/><stop offset="0.5" stop-color="#22132F"/><stop offset="1" stop-color="#1C0F21"/></linearGradient><linearGradient x1="2198" y1="1361.5" x2="2221" y2="1361.5" gradientUnits="userSpaceOnUse" spreadMethod="reflect" id="fill9"><stop offset="0" stop-color="#29173E"/><stop offset="0.5" stop-color="#22132F"/><stop offset="1" stop-color="#1C0F21"/></linearGradient><linearGradient x1="2168" y1="1375.5" x2="2191" y2="1375.5" gradientUnits="userSpaceOnUse" spreadMethod="reflect" id="fill10"><stop offset="0" stop-color="#29173E"/><stop offset="0.5" stop-color="#22132F"/><stop offset="1" stop-color="#1C0F21"/></linearGradient><linearGradient x1="2168" y1="1345.5" x2="2191" y2="1345.5" gradientUnits="userSpaceOnUse" spreadMethod="reflect" id="fill11"><stop offset="0" stop-color="#29173E"/><stop offset="0.5" stop-color="#22132F"/><stop offset="1" stop-color="#1C0F21"/></linearGradient><linearGradient x1="2198" y1="1330.5" x2="2221" y2="1330.5" gradientUnits="userSpaceOnUse" spreadMethod="reflect" id="fill12"><stop offset="0" stop-color="#29173E"/><stop offset="0.5" stop-color="#22132F"/><stop offset="1" stop-color="#1C0F21"/></linearGradient><linearGradient x1="2168" y1="1316" x2="2191" y2="1316" gradientUnits="userSpaceOnUse" spreadMethod="reflect" id="fill13"><stop offset="0" stop-color="#29173E"/><stop offset="0.5" stop-color="#22132F"/><stop offset="1" stop-color="#1C0F21"/></linearGradient></defs><g clip-path="url(#clip0)" transform="translate(-1999 -1038)"><path d="M2400.87 1234.34 2400.87 1234.34C2402.25 1230.89 2402.25 1227.11 2400.53 1224.01L2400.53 1224.01C2398.81 1221.25 2398.46 1217.81 2399.49 1214.71L2399.49 1214.71C2400.87 1211.27 2400.18 1207.48 2398.12 1204.38L2398.12 1204.38C2396.05 1201.63 2395.37 1198.19 2396.4 1195.09L2396.4 1195.09C2397.43 1191.65 2396.4 1187.86 2393.99 1185.1L2393.99 1185.1C2391.93 1182.69 2390.89 1179.25 2391.24 1176.15L2391.24 1176.15C2391.93 1172.37 2390.55 1168.92 2387.8 1166.51L2387.8 1166.51C2385.39 1164.45 2384.01 1161.01 2384.01 1157.91L2384.01 1157.91C2384.01 1154.12 2382.64 1150.68 2379.54 1148.61L2379.54 1148.61C2376.79 1146.55 2375.42 1143.45 2375.07 1140.35L2375.07 1140.35C2375.07 1136.56 2373.01 1133.46 2369.57 1131.4L2369.57 1131.4C2366.82 1129.68 2364.75 1126.92 2364.41 1123.48L2364.41 1123.48C2363.72 1119.69 2361.66 1116.59 2358.22 1115.22L2358.22 1115.22C2355.12 1113.84 2353.06 1111.09 2352.37 1107.99L2352.37 1107.99C2351.34 1104.54 2348.93 1101.45 2345.49 1100.41L2345.49 1100.41C2342.39 1099.38 2339.98 1096.97 2338.95 1093.87L2338.95 1093.87C2337.58 1090.43 2334.83 1088.02 2331.39 1086.99L2331.39 1086.99C2328.29 1086.3 2325.54 1083.89 2324.16 1081.13L2324.16 1081.13C2322.44 1077.69 2319.35 1075.62 2315.91 1074.94L2315.91 1074.94C2312.81 1074.59 2309.71 1072.53 2307.99 1069.77L2307.99 1069.77C2306.27 1066.67 2302.83 1064.61 2299.05 1064.61L2299.05 1064.61C2295.61 1064.61 2292.86 1062.89 2290.8 1060.13L2290.8 1060.13C2288.39 1057.03 2284.95 1055.31 2281.16 1055.66L2281.16 1055.66C2277.72 1055.66 2274.63 1054.62 2272.56 1052.21L2272.56 1052.21C2270.16 1049.46 2266.37 1048.08 2262.93 1048.77L2262.93 1048.77C2259.84 1049.12 2256.4 1048.08 2253.99 1046.02L2253.99 1046.02C2251.24 1043.61 2247.45 1042.57 2244.01 1043.61L2244.01 1043.61C2240.92 1044.3 2237.48 1043.61 2234.73 1041.89L2234.73 1041.89C2231.63 1039.82 2227.85 1039.13 2224.41 1040.51L2224.41 1040.51C2221.31 1041.54 2217.87 1041.2 2215.12 1039.48L2215.12 1039.48C2212.02 1037.75 2208.24 1037.41 2204.8 1039.13L2204.8 1039.13C2201.7 1040.51 2198.26 1040.51 2195.51 1039.13L2195.51 1039.13C2192.07 1037.75 2188.29 1037.75 2185.19 1039.48L2185.19 1039.48C2182.44 1041.2 2179 1041.54 2175.91 1040.51L2175.91 1040.51C2172.47 1039.13 2168.68 1039.82 2165.59 1041.89L2165.59 1041.89C2162.83 1043.95 2159.39 1044.64 2156.3 1043.61L2156.3 1043.61C2152.86 1042.57 2149.07 1043.61 2146.32 1046.02L2146.32 1046.02C2143.92 1048.08 2140.48 1049.12 2137.38 1048.77L2137.38 1048.77C2133.6 1048.08 2130.16 1049.46 2127.75 1052.21L2127.75 1052.21C2125.68 1054.62 2122.24 1056 2119.15 1055.66L2119.15 1055.66C2115.36 1055.66 2111.92 1057.03 2109.86 1060.13L2109.86 1060.13C2107.8 1062.89 2104.7 1064.26 2101.61 1064.61L2101.61 1064.61C2097.82 1064.61 2094.73 1066.67 2092.66 1069.77L2092.66 1069.77C2090.94 1072.53 2088.19 1074.59 2084.75 1074.94L2084.75 1074.94C2080.97 1075.62 2077.87 1077.69 2076.49 1081.13L2076.49 1081.13C2075.12 1084.23 2072.37 1086.3 2069.27 1086.99L2069.27 1086.99C2065.83 1088.02 2062.74 1090.43 2061.7 1093.87L2061.7 1093.87C2060.67 1096.97 2058.26 1099.38 2055.17 1100.41L2055.17 1100.41C2051.73 1101.79 2049.32 1104.54 2048.29 1107.99L2048.29 1107.99C2047.6 1111.09 2045.19 1113.84 2042.44 1115.22L2042.44 1115.22C2039 1116.94 2036.94 1120.04 2036.25 1123.48L2036.25 1123.48C2035.9 1126.58 2033.84 1129.68 2031.09 1131.4L2031.09 1131.4C2027.99 1133.12 2025.59 1136.56 2025.59 1140.35L2025.59 1140.35C2025.59 1143.79 2023.87 1146.55 2021.11 1148.61L2021.11 1148.61C2018.02 1150.68 2016.64 1154.46 2016.64 1157.91L2016.64 1157.91C2016.64 1161.35 2015.61 1164.45 2013.2 1166.51L2013.2 1166.51C2010.45 1168.92 2009.07 1172.71 2009.76 1176.15L2009.76 1176.15C2010.11 1179.25 2009.07 1182.69 2007.01 1185.1L2007.01 1185.1C2004.6 1187.86 2003.57 1191.65 2004.6 1195.09L2004.6 1195.09C2005.29 1198.19 2004.6 1201.63 2002.88 1204.38L2002.88 1204.38C2000.82 1207.48 2000.13 1211.27 2001.51 1214.71L2001.51 1214.71C2002.54 1217.81 2002.19 1221.25 2000.47 1224.01L2000.47 1224.01C1998.75 1227.11 1998.41 1230.89 2000.13 1234.34L2000.13 1234.34C2001.51 1237.43 2001.51 1240.88 2000.13 1243.63L2000.13 1243.63C1998.75 1247.07 1998.75 1250.86 2000.47 1253.96L2000.47 1253.96C2002.19 1256.71 2002.54 1260.16 2001.51 1263.26L2001.51 1263.26C2000.13 1266.7 2000.82 1270.48 2002.88 1273.58L2002.88 1273.58C2004.95 1276.34 2005.63 1279.78 2004.6 1282.88L2004.6 1282.88C2003.57 1286.32 2004.6 1290.11 2007.01 1292.86L2007.01 1292.86C2009.07 1295.27 2010.11 1298.72 2009.76 1301.81L2009.07 1307.67 2013.55 1311.8C2015.95 1313.86 2017.33 1317.31 2016.99 1320.4L2016.99 1320.4C2016.99 1324.19 2018.36 1327.63 2021.46 1329.7L2021.46 1329.7C2024.21 1331.77 2025.59 1334.52 2025.93 1337.96L2025.93 1337.96C2025.93 1341.75 2027.99 1344.85 2031.09 1346.91L2031.09 1346.91C2033.84 1348.64 2035.9 1351.39 2036.25 1354.83L2036.25 1354.83C2036.94 1358.62 2039 1361.72 2042.44 1363.1L2042.44 1363.1C2045.54 1364.47 2047.6 1367.23 2048.29 1370.32L2048.29 1370.32C2049.32 1373.77 2051.73 1376.87 2055.17 1377.9L2055.17 1377.9C2058.26 1378.93 2060.67 1381.34 2061.7 1384.44L2061.7 1384.44C2063.08 1387.88 2065.83 1390.29 2069.27 1391.33L2069.27 1391.33C2072.37 1392.01 2075.12 1394.42 2076.49 1397.18L2076.49 1397.18C2078.21 1400.62 2081.31 1402.69 2084.75 1403.38L2084.75 1403.38C2087.85 1403.72 2090.94 1405.79 2092.66 1408.54L2092.66 1408.54C2094.38 1411.64 2097.82 1413.7 2101.61 1414.05L2101.61 1414.05C2105.05 1414.05 2107.8 1415.77 2109.86 1418.52L2109.86 1418.52C2112.27 1421.62 2115.71 1423.34 2119.49 1423L2119.49 1423C2122.93 1423 2126.03 1424.03 2128.09 1426.79L2128.09 1426.79C2130.5 1429.54 2134.28 1430.92 2137.72 1430.23L2137.72 1430.23C2140.82 1429.88 2144.26 1430.92 2146.67 1432.98L2146.67 1432.98C2149.42 1435.39 2153.2 1436.43 2156.64 1435.39L2156.64 1435.39C2159.74 1434.7 2163.18 1435.39 2165.93 1437.11L2165.93 1437.11C2169.03 1439.18 2172.81 1439.87 2176.25 1438.49L2176.25 1438.49C2179.35 1437.46 2182.79 1437.8 2185.54 1439.52L2185.54 1439.52C2188.63 1441.25 2192.42 1441.59 2195.86 1439.87L2195.86 1439.87C2198.95 1438.49 2202.39 1438.49 2205.14 1439.87L2205.14 1439.87C2208.58 1441.25 2212.37 1441.25 2215.46 1439.52L2215.46 1439.52C2218.22 1437.8 2221.66 1437.46 2224.75 1438.49L2224.75 1438.49C2228.19 1439.87 2231.97 1439.18 2235.07 1437.11L2235.07 1437.11C2237.82 1435.05 2241.26 1434.36 2244.36 1435.39L2244.36 1435.39C2247.8 1436.43 2251.58 1435.39 2254.33 1432.98L2254.33 1432.98C2256.74 1430.92 2260.18 1429.88 2263.28 1430.23L2263.28 1430.23C2267.06 1430.92 2270.5 1429.54 2272.91 1426.79L2272.91 1426.79C2274.97 1424.38 2278.41 1423 2281.51 1423L2281.51 1423C2285.29 1423 2288.73 1421.62 2290.8 1418.52L2290.8 1418.52C2292.86 1415.77 2295.96 1414.39 2299.05 1414.05L2299.05 1414.05C2302.83 1414.05 2305.93 1411.98 2307.99 1408.54L2307.99 1408.54C2309.71 1405.79 2312.47 1403.72 2315.91 1403.38L2315.91 1403.38C2319.69 1402.69 2322.79 1400.62 2324.16 1397.18L2324.16 1397.18C2325.54 1394.08 2328.29 1392.01 2331.39 1391.33L2331.39 1391.33C2334.83 1390.29 2337.92 1387.88 2338.95 1384.44L2338.95 1384.44C2339.98 1381.34 2342.39 1378.93 2345.49 1377.9L2345.49 1377.9C2348.93 1376.52 2351.34 1373.77 2352.37 1370.32L2352.37 1370.32C2353.06 1367.23 2355.46 1364.47 2358.22 1363.1L2358.22 1363.1C2361.66 1361.37 2363.72 1358.28 2364.41 1354.83L2364.41 1354.83C2364.75 1351.73 2366.82 1348.64 2369.57 1346.91L2369.57 1346.91C2372.66 1345.19 2374.73 1341.75 2375.07 1337.96L2375.07 1337.96C2375.07 1334.52 2376.79 1331.77 2379.54 1329.7L2379.54 1329.7C2382.64 1327.63 2384.01 1323.85 2384.01 1320.4L2384.01 1320.4C2384.01 1316.96 2385.05 1313.86 2387.8 1311.8L2387.8 1311.8C2390.55 1309.39 2391.93 1305.6 2391.24 1302.16L2391.24 1302.16C2390.89 1299.06 2391.93 1295.62 2393.99 1293.21L2393.99 1293.21C2396.4 1290.45 2397.43 1286.67 2396.4 1283.22L2396.4 1283.22C2395.71 1280.12 2396.4 1276.68 2398.12 1273.93L2398.12 1273.93C2400.18 1270.83 2400.87 1267.04 2399.49 1263.6L2399.49 1263.6C2398.46 1260.5 2398.81 1257.06 2400.53 1254.3L2400.53 1254.3C2402.25 1251.21 2402.59 1247.42 2400.87 1243.98L2400.87 1243.98C2399.49 1240.88 2399.49 1237.43 2400.87 1234.34Z" fill="url(#fill1)" fill-rule="evenodd"/><path d="M2200 1056C2098.71 1056 2017 1138.06 2017 1239 2017 1339.94 2099.06 1422 2200 1422 2300.94 1422 2383 1339.94 2383 1239L2383 1239C2383 1137.71 2301.29 1056 2200 1056ZM2200 1415.82C2102.49 1415.82 2023.18 1336.51 2023.18 1239 2023.18 1141.49 2102.49 1062.18 2200 1062.18 2297.51 1062.18 2376.82 1141.49 2376.82 1239 2376.82 1336.51 2297.51 1415.82 2200 1415.82Z" fill="url(#fill2)" fill-rule="evenodd"/><path d="M2200 1068C2105.57 1068 2029 1144.57 2029 1239 2029 1333.43 2105.57 1410 2200 1410 2294.43 1410 2371 1333.43 2371 1239 2371 1239 2371 1239 2371 1239 2371 1144.57 2294.43 1068 2200 1068 2200 1068 2200 1068 2200 1068ZM2200 1408.63C2106.26 1408.63 2030.37 1332.74 2030.37 1239 2030.37 1145.26 2106.26 1069.37 2200 1069.37 2293.74 1069.37 2369.63 1145.26 2369.63 1239L2369.63 1239C2369.63 1332.74 2293.74 1408.63 2200 1408.63Z" fill="url(#fill3)" fill-rule="evenodd"/><path d="M2374.88 1291 2025.81 1291 2021 1246.46 2023.41 1204 2376.25 1204 2379 1245.77Z" fill="url(#fill4)" fill-rule="evenodd"/><path d="M2215.11 1092.69 2206.74 1092.69C2206.07 1092.69 2205.74 1092.35 2205.74 1092.01L2203.06 1083.82C2202.73 1083.13 2202.39 1082.79 2201.72 1083.13 2201.39 1083.13 2201.05 1083.48 2201.05 1083.82L2198.38 1092.01C2198.38 1092.35 2197.71 1092.69 2197.37 1092.69L2189 1092.69C2188.33 1092.69 2188 1093.03 2188 1093.71 2188 1094.05 2188.33 1094.4 2188.33 1094.74L2195.03 1099.86C2195.36 1100.2 2195.7 1100.54 2195.36 1101.22L2192.69 1109.41C2192.35 1110.09 2193.02 1110.78 2193.36 1110.78 2193.69 1110.78 2194.02 1110.78 2194.36 1110.78L2201.05 1105.66C2201.39 1105.32 2202.06 1105.32 2202.39 1105.66L2209.09 1110.78C2209.76 1111.12 2210.43 1111.12 2210.76 1110.43 2211.09 1110.09 2211.09 1109.75 2210.76 1109.41L2208.08 1101.22C2208.08 1100.54 2208.42 1100.2 2208.75 1099.86L2215.45 1094.74C2216.11 1094.4 2216.11 1093.71 2215.78 1093.03 2216.11 1093.03 2215.78 1092.69 2215.11 1092.69Z" fill="url(#fill5)" fill-rule="evenodd"/><path d="M2276.98 1113.57 2271.21 1113.57C2270.88 1113.57 2270.54 1113.23 2270.54 1112.89L2268.84 1107.48C2268.84 1107.14 2268.16 1106.8 2267.82 1107.14 2267.48 1107.14 2267.48 1107.48 2267.48 1107.48L2265.79 1112.89C2265.79 1113.23 2265.45 1113.57 2265.11 1113.57L2259.68 1113.57C2259.34 1113.57 2259 1113.91 2259 1114.24 2259 1114.58 2259 1114.58 2259.34 1114.92L2263.75 1118.3C2264.09 1118.64 2264.09 1118.98 2264.09 1119.32L2262.39 1124.73C2262.39 1125.07 2262.39 1125.41 2263.07 1125.75 2263.41 1125.75 2263.41 1125.75 2263.75 1125.75L2268.16 1122.36C2268.5 1122.03 2268.84 1122.03 2269.18 1122.36L2273.59 1125.75C2273.93 1126.09 2274.27 1126.09 2274.61 1125.75 2274.61 1125.41 2274.95 1125.41 2274.61 1125.07L2272.91 1119.66C2272.91 1119.32 2272.91 1118.98 2273.25 1118.64L2277.66 1115.26C2278 1114.92 2278 1114.58 2278 1114.24 2277.32 1113.57 2277.32 1113.57 2276.98 1113.57Z" fill="#FFFFFF" fill-rule="evenodd"/><path d="M2318.95 1147.24 2315.08 1147.24C2314.73 1147.24 2314.73 1147.24 2314.73 1146.88L2313.68 1143.35C2313.68 1143 2313.32 1143 2312.97 1143 2312.97 1143 2312.62 1143 2312.62 1143.35L2311.57 1146.88C2311.57 1147.24 2311.22 1147.24 2311.22 1147.24L2307.35 1147.24C2307 1147.24 2307 1147.59 2307 1147.59 2307 1147.94 2307 1147.94 2307.35 1147.94L2310.51 1150.06C2310.51 1150.06 2310.51 1150.41 2310.51 1150.76L2309.46 1154.29C2309.46 1154.65 2309.46 1155 2309.81 1155 2309.81 1155 2310.16 1155 2310.16 1155L2313.32 1152.88C2313.68 1152.88 2313.68 1152.88 2314.03 1152.88L2317.19 1155C2317.54 1155 2317.89 1155 2317.89 1155 2317.89 1155 2317.89 1154.65 2317.89 1154.65L2316.84 1151.12C2316.84 1151.12 2316.84 1150.76 2316.84 1150.41L2320 1148.29C2319.3 1147.94 2319.3 1147.59 2318.95 1147.24 2319.3 1147.24 2318.95 1147.24 2318.95 1147.24Z" fill="url(#fill6)" fill-rule="evenodd"/><path d="M2122.68 1113.57 2128.45 1113.57C2128.79 1113.57 2129.13 1113.23 2129.13 1112.89L2130.82 1107.48C2130.82 1107.14 2131.5 1106.8 2131.84 1107.14 2132.18 1107.14 2132.18 1107.48 2132.18 1107.48L2133.88 1112.89C2133.88 1113.23 2134.21 1113.57 2134.55 1113.57L2140.32 1113.57C2140.66 1113.57 2141 1113.91 2141 1114.24 2141 1114.58 2141 1114.58 2140.66 1114.92L2136.25 1118.3C2135.91 1118.64 2135.91 1118.98 2135.91 1119.32L2137.61 1124.73C2137.61 1125.07 2137.61 1125.41 2136.93 1125.75 2136.59 1125.75 2136.59 1125.75 2136.25 1125.75L2131.84 1122.36C2131.5 1122.03 2131.16 1122.03 2130.82 1122.36L2126.41 1125.75C2126.07 1126.09 2125.73 1126.09 2125.39 1125.75 2125.39 1125.41 2125.05 1125.41 2125.39 1125.07L2127.09 1119.66C2127.09 1119.32 2127.09 1118.98 2126.75 1118.64L2122.34 1115.26C2122 1114.92 2122 1114.58 2122 1114.24 2122.34 1113.57 2122.34 1113.57 2122.68 1113.57Z" fill="#FFFFFF" fill-rule="evenodd"/><path d="M2081.56 1147.24 2085.26 1147.24C2085.6 1147.24 2085.6 1147.24 2085.6 1146.88L2086.61 1143.35C2086.61 1143 2086.94 1143 2087.28 1143 2087.28 1143 2087.62 1143 2087.62 1143.35L2088.63 1146.88C2088.63 1147.24 2088.96 1147.24 2088.96 1147.24L2092.66 1147.24C2093 1147.24 2093 1147.59 2093 1147.59 2093 1147.94 2093 1147.94 2092.66 1147.94L2089.63 1150.06C2089.3 1150.06 2089.3 1150.41 2089.63 1150.76L2090.64 1154.29C2090.64 1154.65 2090.64 1155 2090.31 1155 2090.31 1155 2089.97 1155 2089.97 1155L2086.94 1152.88C2086.61 1152.88 2086.61 1152.88 2086.27 1152.88L2083.91 1155C2083.58 1155 2083.24 1155 2083.24 1155 2083.24 1155 2083.24 1154.65 2083.24 1154.65L2084.25 1151.12C2084.25 1150.76 2084.25 1150.76 2084.25 1150.41L2081.22 1148.29C2080.88 1147.94 2080.88 1147.59 2081.56 1147.24 2081.22 1147.24 2081.22 1147.24 2081.56 1147.24Z" fill="url(#fill7)" fill-rule="evenodd"/><path d="M2106 1241 2096.25 1241 2096.25 1228.19 2089.19 1241 2082.81 1241 2075.75 1228.19 2075.75 1241 2066 1241 2066 1214 2077.76 1214 2085.83 1229.23 2093.9 1214 2106 1214 2106 1241Z" fill="#FFFFFF" fill-rule="evenodd"/><path d="M2138.98 1236.15 2127.68 1236.15 2125.96 1241 2115 1241 2125.96 1214 2140.69 1214 2152 1241 2141.04 1241 2138.98 1236.15ZM2136.24 1229.23 2133.16 1220.92 2130.07 1229.23 2136.24 1229.23Z" fill="#FFFFFF" fill-rule="evenodd"/><path d="M2173.5 1213C2183.94 1213 2189.33 1216.85 2190 1225.25L2179.9 1225.25C2179.56 1222.8 2177.54 1221.4 2173.5 1221.4 2167.78 1221.4 2166.77 1223.85 2166.77 1227 2166.77 1230.15 2167.78 1232.6 2173.5 1232.6 2177.54 1232.6 2179.56 1231.2 2179.9 1228.75L2190 1228.75C2189.33 1237.15 2183.94 1241 2173.5 1241 2162.05 1241 2157 1236.45 2157 1227 2157 1217.55 2162.05 1213 2173.5 1213Z" fill="#FFFFFF" fill-rule="evenodd"/><path d="M2234 1214 2234 1241 2224.24 1241 2224.24 1231.65 2208.76 1231.65 2208.76 1241 2199 1241 2199 1214 2208.76 1214 2208.76 1223.35 2224.24 1223.35 2224.24 1214 2234 1214Z" fill="#FFFFFF" fill-rule="evenodd"/><path d="M2254 1241 2244 1241 2244 1214 2254 1214 2254 1241Z" fill="#FFFFFF" fill-rule="evenodd"/><path d="M2297 1214 2297 1241 2284.08 1241 2272.86 1225.08 2272.86 1241 2263 1241 2263 1214 2275.92 1214 2287.14 1229.92 2287.14 1214 2297 1214Z" fill="#FFFFFF" fill-rule="evenodd"/><path d="M2315.9 1221.62 2315.9 1224.04 2334 1224.04 2334 1230.62 2315.9 1230.62 2315.9 1233.04 2334 1233.04 2334 1241 2306 1241 2306 1214 2334 1214 2334 1221.62 2315.9 1221.62Z" fill="#FFFFFF" fill-rule="evenodd"/><path d="M2079 1270.69 2079 1279 2051 1279 2051 1252 2061.15 1252 2061.15 1270.35 2079 1270.35Z" fill="#FFFFFF" fill-rule="evenodd"/><path d="M2097.9 1259.96 2097.9 1262.38 2116 1262.38 2116 1268.96 2097.9 1268.96 2097.9 1271.38 2116 1271.38 2116 1279 2088 1279 2088 1252 2116 1252 2116 1259.62 2097.9 1259.62Z" fill="#FFFFFF" fill-rule="evenodd"/><path d="M2148.21 1274.15 2136.79 1274.15 2135.07 1279 2124 1279 2135.07 1252 2149.94 1252 2161 1279 2149.94 1279 2148.21 1274.15ZM2145.44 1267.23 2142.33 1258.92 2139.22 1267.23 2145.44 1267.23Z" fill="#FFFFFF" fill-rule="evenodd"/><path d="M2196.23 1271.39 2201 1279 2189.42 1279 2185.67 1272.77 2179.88 1272.77 2179.88 1279 2170 1279 2170 1252.02 2190.78 1252.02C2196.23 1251.67 2200.66 1255.82 2201 1261.36 2201 1261.71 2201 1262.05 2201 1262.4 2201 1266.2 2199.3 1269.66 2196.23 1271.39ZM2179.88 1264.47 2189.08 1264.47C2190.1 1264.47 2191.46 1264.47 2191.46 1262.74 2191.46 1261.01 2190.1 1261.01 2189.08 1261.01L2179.88 1261.01 2179.88 1264.47Z" fill="#FFFFFF" fill-rule="evenodd"/><path d="M2244 1252 2244 1279 2231.08 1279 2219.86 1263.08 2219.86 1279 2210 1279 2210 1252 2222.92 1252 2234.48 1267.92 2234.48 1252 2244 1252Z" fill="#FFFFFF" fill-rule="evenodd"/><path d="M2263 1279 2253 1279 2253 1252 2263 1252 2263 1279Z" fill="#FFFFFF" fill-rule="evenodd"/><path d="M2307 1252 2307 1279 2293.7 1279 2281.8 1263.08 2281.8 1279 2272 1279 2272 1252 2285.3 1252 2296.85 1267.92 2296.85 1252 2307 1252Z" fill="#FFFFFF" fill-rule="evenodd"/><path d="M2331.16 1264.46 2348 1264.46 2348 1278.61 2342.28 1278.61 2341.6 1274.91C2338.57 1277.94 2334.53 1279.29 2330.49 1278.95 2320.72 1278.95 2315 1274.57 2315 1265.47 2315 1256.38 2320.72 1252 2331.5 1252 2342.28 1252 2347.33 1255.71 2347.66 1262.78L2337.56 1262.78C2337.22 1261.43 2335.2 1260.08 2331.16 1260.08 2325.44 1260.08 2324.43 1262.44 2324.43 1265.81 2324.43 1269.18 2325.44 1271.88 2331.16 1271.88 2334.87 1271.88 2337.22 1271.2 2337.56 1269.52L2330.49 1269.52 2331.16 1264.46Z" fill="#FFFFFF" fill-rule="evenodd"/><path d="M2140 1136 2141.67 1136C2142.67 1136 2143.67 1136.67 2144 1137.67 2144 1138 2144 1138 2144 1138.33L2144 1138.67C2144 1140 2143.67 1140.67 2143 1140.67 2143.67 1141 2144 1141.33 2144 1142.67L2144 1143.33C2144 1145 2143.33 1146 2141.67 1146L2140 1146 2140 1136ZM2141.67 1140.33C2142.67 1140.33 2143 1140 2143 1138.67L2143 1138.33C2143 1137.33 2142.67 1137 2141.67 1137L2141 1137 2141 1140.33 2141.67 1140.33ZM2141 1145.33 2141.67 1145.33C2142.67 1145.33 2143 1144.67 2143 1143.67L2143 1143C2143 1142 2142.67 1141.33 2141.67 1141.33L2141 1141.33 2141 1145.33Z" fill="#373737" fill-rule="evenodd"/><path d="M2153 1138.58 2153 1143.42C2153 1145.03 2152.29 1146 2150.5 1146 2148.71 1146 2148 1145.03 2148 1143.42L2148 1138.58C2148 1136.97 2148.71 1136 2150.5 1136 2152.29 1136 2153 1136.97 2153 1138.58ZM2149.43 1138.58 2149.43 1143.74C2149.43 1144.71 2149.79 1145.35 2150.5 1145.35 2151.21 1145.35 2151.57 1145.03 2151.57 1143.74L2151.57 1138.58C2151.57 1137.61 2151.21 1136.97 2150.5 1136.97 2149.79 1136.97 2149.43 1137.29 2149.43 1138.58L2149.43 1138.58Z" fill="#373737" fill-rule="evenodd"/><path d="M2161 1138.58 2161 1143.42C2161 1145.03 2160.43 1146 2159 1146 2157.57 1146 2157 1145.03 2157 1143.42L2157 1138.58C2157 1136.97 2157.57 1136 2159 1136 2160.43 1136 2161 1136.97 2161 1138.58ZM2158.14 1138.58 2158.14 1143.74C2158.14 1144.71 2158.43 1145.35 2159 1145.35 2159.57 1145.35 2159.86 1145.03 2159.86 1143.74L2159.86 1138.58C2159.86 1137.61 2159.57 1136.97 2159 1136.97 2158.43 1136.97 2158.14 1137.29 2158.14 1138.58L2158.14 1138.58Z" fill="#373737" fill-rule="evenodd"/><path d="M2166.92 1136.97 2165 1136.97 2165 1136 2170 1136 2170 1136.97 2168.08 1136.97 2168.08 1146 2166.92 1146 2166.92 1136.97Z" fill="#373737" fill-rule="evenodd"/><path d="M2178 1142.91 2178 1142.91C2178 1144.63 2177.67 1146 2176 1146 2174.33 1146 2174 1144.63 2174 1143.25L2174 1137.75C2174 1136.03 2174.67 1135 2176 1135 2177.33 1135 2178 1136.38 2178 1137.75L2178 1138.09 2177 1138.09 2177 1137.75C2177 1137.06 2177 1136.03 2176 1136.03 2175 1136.03 2175 1136.72 2175 1137.75L2175 1143.25C2175 1144.28 2175.33 1144.97 2176 1144.97 2176.67 1144.97 2177 1144.28 2177 1143.25L2177 1142.91 2178 1142.91Z" fill="#373737" fill-rule="evenodd"/><path d="M2183 1142.77 2182.2 1146 2181 1146 2183 1136 2185 1136 2187 1146 2185.8 1146 2185 1142.77 2183 1142.77ZM2185 1141.81C2184.6 1139.55 2184.2 1137.94 2184.2 1136.97L2184.2 1136.97C2184.2 1137.61 2183.8 1139.87 2183.4 1141.81L2185 1141.81Z" fill="#373737" fill-rule="evenodd"/><path d="M2195.74 1141.81C2195.74 1139.87 2195.74 1137.94 2195.74 1136.97L2195.74 1136.97C2195.42 1138.58 2194.79 1143.1 2194.16 1146L2193.21 1146C2192.89 1143.42 2191.95 1138.9 2191.95 1136.97L2191.95 1136.97C2191.95 1137.94 2191.95 1140.19 2191.95 1142.13L2191.95 1146 2191 1146 2191 1136 2192.58 1136C2193.21 1138.9 2193.84 1142.45 2193.84 1143.74L2193.84 1143.74C2193.84 1142.45 2194.79 1138.58 2195.42 1136L2197 1136 2197 1146 2196.05 1146 2195.74 1141.81Z" fill="#373737" fill-rule="evenodd"/><path d="M2202 1136 2203.85 1136C2205.08 1136 2206 1136.65 2206 1138.26L2206 1138.9C2206 1140.52 2205.69 1141.48 2203.85 1141.48L2203.23 1141.48 2203.23 1146 2202.31 1146 2202.31 1136ZM2202.92 1140.52 2203.54 1140.52C2204.46 1140.52 2204.77 1139.87 2204.77 1138.9L2204.77 1138.26C2204.77 1137.61 2204.46 1136.65 2203.54 1136.65L2202.92 1136.65 2202.92 1140.52Z" fill="#373737" fill-rule="evenodd"/><path d="M2220 1138.58 2220 1143.42C2220 1145.03 2219.29 1146 2217.5 1146 2215.71 1146 2215 1145.03 2215 1143.42L2215 1138.58C2215 1136.97 2215.71 1136 2217.5 1136 2219.29 1136 2220 1136.97 2220 1138.58ZM2216.43 1138.58 2216.43 1143.74C2216.43 1144.71 2216.79 1145.35 2217.5 1145.35 2218.21 1145.35 2218.57 1145.03 2218.57 1143.74L2218.57 1138.58C2218.57 1137.61 2218.21 1136.97 2217.5 1136.97 2216.79 1136.97 2216.43 1137.29 2216.43 1138.58L2216.43 1138.58Z" fill="#373737" fill-rule="evenodd"/><path d="M2224 1146 2224 1136 2225.43 1136C2226.14 1137.94 2227.57 1143.1 2227.93 1143.74L2227.93 1143.74C2227.93 1142.45 2227.93 1141.16 2227.93 1139.55L2227.93 1136 2229 1136 2229 1146 2227.57 1146C2226.86 1144.06 2225.43 1138.58 2225.07 1137.94L2225.07 1137.94C2225.07 1139.23 2225.07 1140.84 2225.07 1142.45L2225.07 1146 2224 1146Z" fill="#373737" fill-rule="evenodd"/><path d="M2234 1136 2234.82 1136 2234.82 1145.03 2237 1145.03 2237 1146 2234 1146 2234 1136Z" fill="#373737" fill-rule="evenodd"/><path d="M2243 1136 2243 1146 2242 1146 2242 1136 2243 1136Z" fill="#373737" fill-rule="evenodd"/><path d="M2247 1146 2247 1136 2248.54 1136C2249.31 1137.94 2250.85 1143.1 2250.85 1143.74L2250.85 1143.74C2250.85 1142.45 2250.85 1141.16 2250.85 1139.55L2250.85 1136 2252 1136 2252 1146 2250.46 1146C2249.69 1144.06 2248.15 1138.58 2247.77 1137.94L2247.77 1137.94C2247.77 1139.23 2247.77 1140.84 2247.77 1142.45L2247.77 1146 2247 1146Z" fill="#373737" fill-rule="evenodd"/><path d="M2259.73 1141.16 2257.82 1141.16 2257.82 1145.03 2260 1145.03 2260 1146 2257 1146 2257 1136 2260 1136 2260 1136.97 2258.09 1136.97 2258.09 1140.19 2260 1140.19 2260 1141.16Z" fill="#373737" fill-rule="evenodd"/><path d="M2251 1345.5C2251 1351.85 2245.85 1357 2239.5 1357 2233.15 1357 2228 1351.85 2228 1345.5 2228 1339.15 2233.15 1334 2239.5 1334 2245.85 1334 2251 1339.15 2251 1345.5Z" fill="url(#fill8)" fill-rule="evenodd"/><path d="M2221 1361.5C2221 1367.85 2215.85 1373 2209.5 1373 2203.15 1373 2198 1367.85 2198 1361.5 2198 1355.15 2203.15 1350 2209.5 1350 2215.85 1350 2221 1355.15 2221 1361.5Z" fill="url(#fill9)" fill-rule="evenodd"/><path d="M2191 1375.5C2191 1381.85 2185.85 1387 2179.5 1387 2173.15 1387 2168 1381.85 2168 1375.5 2168 1369.15 2173.15 1364 2179.5 1364 2185.85 1364 2191 1369.15 2191 1375.5Z" fill="url(#fill10)" fill-rule="evenodd"/><path d="M2191 1345.5C2191 1351.85 2185.85 1357 2179.5 1357 2173.15 1357 2168 1351.85 2168 1345.5 2168 1339.15 2173.15 1334 2179.5 1334 2185.85 1334 2191 1339.15 2191 1345.5Z" fill="url(#fill11)" fill-rule="evenodd"/><path d="M2221 1330.5C2221 1336.85 2215.85 1342 2209.5 1342 2203.15 1342 2198 1336.85 2198 1330.5 2198 1324.15 2203.15 1319 2209.5 1319 2215.85 1319 2221 1324.15 2221 1330.5Z" fill="url(#fill12)" fill-rule="evenodd"/><path d="M2191 1316C2191 1322.63 2185.85 1328 2179.5 1328 2173.15 1328 2168 1322.63 2168 1316 2168 1309.37 2173.15 1304 2179.5 1304 2185.85 1304 2191 1309.37 2191 1316Z" fill="url(#fill13)" fill-rule="evenodd"/><path d="M2208.96 1363 2178.7 1347.23C2178.35 1346.88 2178 1346.53 2178 1346.18 2178 1345.82 2178.35 1345.12 2178.7 1345.12L2208.96 1329 2210 1331.45 2181.83 1346.18 2210 1360.9 2208.96 1363Z" fill="#FFFFFF" fill-rule="evenodd"/><path d="M2179.37 1377C2178.69 1377 2178 1376.65 2178 1375.62 2178 1375.27 2178 1374.93 2178.34 1374.93L2197.53 1345.57 2178.34 1316.22C2178 1315.87 2178 1315.18 2178.34 1314.49 2178.69 1314.14 2179.37 1313.8 2179.71 1314.14L2209.51 1328.65 2239.32 1344.54C2239.66 1344.88 2240 1345.23 2240 1345.57 2240 1345.92 2239.66 1346.61 2239.32 1346.61L2209.51 1362.15 2179.37 1377C2179.71 1377 2179.37 1377 2179.37 1377ZM2198.89 1347.99 2182.8 1372.51 2207.12 1360.77 2198.89 1347.99ZM2200.61 1345.57 2209.86 1359.73 2236.57 1345.57 2209.86 1331.76 2200.61 1345.57ZM2182.8 1318.63 2198.89 1343.15 2207.12 1330.38 2182.8 1318.63Z" fill="#FFFFFF" fill-rule="evenodd"/><path d="M2239 1350C2236.82 1350 2235 1348.18 2235 1346 2235 1343.82 2236.82 1342 2239 1342 2241.18 1342 2243 1343.82 2243 1346L2243 1346C2243 1347.82 2241.18 1350 2239 1350ZM2239 1344.55C2238.27 1344.55 2237.55 1345.27 2237.55 1346 2237.55 1346.73 2238.27 1347.45 2239 1347.45 2239.73 1347.45 2240.45 1346.73 2240.45 1346 2240.45 1346 2240.45 1346 2240.45 1346 2240.45 1344.91 2239.73 1344.18 2239 1344.55Z" fill="#FFFFFF" fill-rule="evenodd"/><path d="M2209 1334C2206.82 1334 2205 1332.41 2205 1330.5 2205 1328.59 2206.82 1327 2209 1327 2211.18 1327 2213 1328.59 2213 1330.5 2213 1330.5 2213 1330.5 2213 1330.5 2213 1332.41 2211.18 1334 2209 1334ZM2209 1329.23C2208.27 1329.23 2207.55 1329.86 2207.55 1330.5 2207.55 1331.14 2208.27 1331.77 2209 1331.77 2209.73 1331.77 2210.45 1331.14 2210.45 1330.5 2210.45 1330.5 2210.45 1330.5 2210.45 1330.5 2210.45 1329.86 2209.73 1329.23 2209 1329.23 2209 1329.23 2209 1329.23 2209 1329.23Z" fill="#FFFFFF" fill-rule="evenodd"/><path d="M2209 1365C2206.82 1365 2205 1363.41 2205 1361.5 2205 1359.59 2206.82 1358 2209 1358 2211.18 1358 2213 1359.59 2213 1361.5L2213 1361.5C2213 1363.41 2211.18 1365 2209 1365ZM2209 1360.23C2208.27 1360.23 2207.55 1360.86 2207.55 1361.5 2207.55 1362.14 2208.27 1362.77 2209 1362.77 2209.73 1362.77 2210.45 1362.14 2210.45 1361.5 2210.45 1361.5 2210.45 1361.5 2210.45 1361.5 2210.45 1360.86 2209.73 1360.23 2209 1360.23Z" fill="#FFFFFF" fill-rule="evenodd"/><path d="M2179.5 1320C2177.59 1320 2176 1318.18 2176 1316 2176 1313.82 2177.59 1312 2179.5 1312 2181.41 1312 2183 1313.82 2183 1316 2183 1316 2183 1316 2183 1316 2183 1318.18 2181.41 1320 2179.5 1320ZM2179.5 1314.55C2178.86 1314.55 2178.23 1315.27 2178.23 1316 2178.23 1316.73 2178.86 1317.46 2179.5 1317.46 2180.14 1317.46 2180.77 1316.73 2180.77 1316 2180.77 1316 2180.77 1316 2180.77 1316 2180.77 1315.27 2180.45 1314.55 2179.5 1314.55 2179.5 1314.18 2179.5 1314.18 2179.5 1314.55L2179.5 1314.55Z" fill="#FFFFFF" fill-rule="evenodd"/><path d="M2179.5 1350C2177.59 1350 2176 1348.18 2176 1346 2176 1343.82 2177.59 1342 2179.5 1342 2181.41 1342 2183 1343.82 2183 1346 2183 1346 2183 1346 2183 1346 2183 1347.82 2181.41 1350 2179.5 1350ZM2179.5 1344.55C2178.86 1344.55 2178.23 1345.27 2178.23 1346 2178.23 1346.73 2178.86 1347.45 2179.5 1347.45 2180.14 1347.45 2180.77 1346.73 2180.77 1346 2180.77 1346 2180.77 1346 2180.77 1346 2180.77 1344.91 2180.14 1344.18 2179.5 1344.55Z" fill="#FFFFFF" fill-rule="evenodd"/><path d="M2179.5 1380C2177.59 1380 2176 1378.18 2176 1376 2176 1373.82 2177.59 1372 2179.5 1372 2181.41 1372 2183 1373.82 2183 1376 2183 1376 2183 1376 2183 1376 2183 1378.18 2181.41 1380 2179.5 1380ZM2179.5 1374.55C2178.86 1374.55 2178.23 1375.27 2178.23 1376 2178.23 1376.73 2178.86 1377.45 2179.5 1377.45 2180.14 1377.45 2180.77 1376.73 2180.77 1376 2180.77 1376 2180.77 1376 2180.77 1376 2180.77 1374.91 2180.14 1374.55 2179.5 1374.55Z" fill="#FFFFFF" fill-rule="evenodd"/><text fill="#FFFFFF" font-family="Arial,Arial_MSFontService,sans-serif" font-weight="400" font-size="17" transform="matrix(1 0 0 1 2184.84 1199)">d</text><text fill="#FFFFFF" font-family="Arial,Arial_MSFontService,sans-serif" font-weight="400" font-size="17" transform="matrix(1 0 0 1 2197.61 1199)">e</text><path d="M2111.94 1176 2067.4 1176C2066.03 1176 2065 1175.33 2065 1174.67L2065 1174.67C2065 1174 2066.03 1173 2067.4 1173L2111.6 1173C2112.97 1173 2114 1173.67 2114 1174.67L2114 1174.67C2114 1175.33 2112.97 1176 2111.94 1176Z" fill="#FFFFFF" fill-rule="evenodd"/><path d="M2332.62 1176 2290.38 1176C2289.02 1176 2288 1175.33 2288 1174.67L2288 1174.67C2288 1174 2289.02 1173 2290.38 1173L2332.62 1173C2333.98 1173 2335 1173.67 2335 1174.67L2335 1174.67C2334.66 1175.33 2333.98 1176 2332.62 1176Z" fill="#FFFFFF" fill-rule="evenodd"/><text fill="#FFFFFF" font-family="Arial,Arial_MSFontService,sans-serif" font-weight="700" font-size="23" transform="matrix(1 0 0 1 2140.94 1174)">engenheiro</text></g></svg>